<svg xmlns="http://www.w3.org/2000/svg" width="408.348" height="129.029" viewBox="0 0 408.348 129.029">
  <path id="L_I" data-name="L&amp;I" d="M467.052-95.1c0-10.638,6.883-18.415,15.286-18.415,4.916,0,7.42,2.5,7.42,5.989a7.29,7.29,0,0,1-1.609,4.559c5.721-3.933,8.224-7.777,9.565-14.213a4.279,4.279,0,0,1,3.576,4.291c0,3.665-2.681,8.045-15.912,14.66l-10.37,5.1c2.145,7.777,7.33,11.531,14.124,11.531,8.314,0,14.124-6.079,15.644-15.465a7.627,7.627,0,0,0-4.291-1.251c-2.145,0-3.307,1.072-4.2,3.933L494.5-95.457c1.073-5.811,3.844-8.045,7.42-8.045a13.658,13.658,0,0,1,5.632,1.609,12.734,12.734,0,0,0,4.916,1.341c2.682,0,3.754-1.609,3.844-4.47l1.967.715c.536,5.632-2.414,9.3-6.258,9.3a10.946,10.946,0,0,1-4.47-1.073c-2.324,11.8-10.012,19.13-21.723,19.13C474.293-76.952,467.052-84.193,467.052-95.1Zm7.152-3.844a18.342,18.342,0,0,0,.268,3.487l3.128-1.609c4.291-2.145,6.347-5.543,6.347-9.029,0-2.681-1.251-4.023-3.039-4.023C477.6-110.117,474.2-105.916,474.2-98.943Zm182.541,14.3c0-2.682,1.609-4.916,4.29-6.258l.179.089c.625,5.364,4.559,9.118,9.386,9.118,2.95,0,4.649-1.52,4.649-3.487,0-1.788-1.341-3.307-7.331-7.866-5.184-4.023-6.168-6.258-6.168-9.208,0-4.827,6.526-11.264,12.6-11.264,4.559,0,7.6,2.592,7.6,5.274a4.64,4.64,0,0,1-3.039,4.112c-1.878-2.771-4.559-4.38-7.241-4.38-2.5,0-4.47,1.609-4.47,3.129,0,1.609,1.162,2.951,6.436,6.794,5.989,4.559,7.419,6.972,7.419,9.923,0,5.9-5.989,11.621-13.766,11.621C660.768-77.041,656.745-80.706,656.745-84.64Zm185.669.536a54.362,54.362,0,0,1,.894-8.671l2.235-15.823c-4.291-.358-5.363-1.43-5.632-2.95l-.178-.894,6.346-.179,1.073-7.062,7.777-3.04L853.5-112.8h8.045l-1.073,4.38h-7.6c-2.5,16.18-2.949,19.756-2.949,22.259,0,2.414.894,3.4,2.682,3.4a17,17,0,0,0,6.972-1.877l.894,2.5c-3.039,2.682-7.688,5.006-11.264,5.006C845.007-77.131,842.414-79.634,842.414-84.1Zm-19.756-.089a54.236,54.236,0,0,1,1.431-9.476,59.511,59.511,0,0,0,1.34-9.744c0-2.056-.447-3.576-1.162-4.2-3.843.447-10.637,7.062-12.068,14.035-1.162,4.827-1.341,8.313-1.341,15.733l-8.492.715,2.5-16.538c1.073-6.526,1.341-9.028,1.341-11.353a9.623,9.623,0,0,0-.358-2.86c-.714-.536-2.323-.894-5.274-.894l-.715-2.146a21.474,21.474,0,0,1,8.671-2.592c2.5,0,4.112,2.414,4.112,11.353h.179c4.38-7.508,8.85-11.353,13.051-11.353,3.844,0,6.883,3.218,6.883,8.314a55.9,55.9,0,0,1-1.341,9.386c-.8,4.023-1.609,7.688-1.609,9.923,0,1.877.626,2.86,1.7,3.4a15.239,15.239,0,0,0,4.738-1.43l.894,2.414a17.8,17.8,0,0,1-9.118,4.38A7.217,7.217,0,0,1,822.658-84.193Zm-53.189-5.1c0-11.979,9.118-24.225,19.4-24.225,4.56,0,7.778,2.771,7.778,7.062,0,6.346-6.884,11.71-19.4,13.587a6.434,6.434,0,0,0-.089,1.609c0,5.989,2.682,8.314,7.6,8.314a23.615,23.615,0,0,0,8.224-1.609l.984,2.5a23.1,23.1,0,0,1-13.052,4.916C774.386-77.131,769.469-81.6,769.469-89.289Zm8.045-6.7c8.314-1.788,11.71-5.185,11.71-9.565,0-2.593-1.251-3.665-3.039-3.665C782.61-109.223,778.23-103.77,777.515-95.993Zm-26.1,11.8a46.951,46.951,0,0,1,1.52-9.565,50.006,50.006,0,0,0,1.251-9.654c0-2.056-.358-3.576-1.073-4.2-2.95.358-9.922,7.151-11.353,14.035-1.073,4.827-1.251,8.313-1.251,15.733l-8.492.715L734.7-93.937a88.837,88.837,0,0,0,1.161-9.476c0-2.056-.357-3.576-1.072-4.2-3.307.447-10.459,7.151-11.89,14.035-1.162,4.827-1.34,8.313-1.251,15.733l-8.582.715,2.592-16.716c1.073-7.241,1.251-8.85,1.251-11.174a9.174,9.174,0,0,0-.358-2.86c-.715-.536-2.324-.894-5.274-.894l-.715-2.146a21.482,21.482,0,0,1,8.672-2.592c2.5,0,4.112,2.414,4.112,11.353h.179c4.29-7.866,9.028-11.353,12.782-11.353,4.38,0,6.08,3.754,6.08,8.314,0,.983-.09,2.056-.179,3.039h.179c4.112-7.777,8.671-11.353,12.068-11.353,4.023,0,7.062,3.218,7.062,8.314a55.9,55.9,0,0,1-1.34,9.386,55.476,55.476,0,0,0-1.609,9.923c0,1.877.625,2.86,1.609,3.4A16.524,16.524,0,0,0,765-83.925l.894,2.414a18.081,18.081,0,0,1-9.208,4.38A7.241,7.241,0,0,1,751.412-84.193Zm-62.843.089a54.391,54.391,0,0,1,.894-8.671L691.7-108.6c-4.291-.358-5.364-1.43-5.632-2.95l-.179-.894,6.347-.179,1.073-7.062,7.777-3.04-1.431,9.923H707.7l-1.072,4.38h-7.6c-2.5,16.18-2.95,19.756-2.95,22.259,0,2.414.894,3.4,2.681,3.4a17.006,17.006,0,0,0,6.973-1.877l.894,2.5c-3.04,2.682-7.688,5.006-11.263,5.006C691.161-77.131,688.569-79.634,688.569-84.1Zm-60.7-5.185c0-11.979,9.118-24.225,19.4-24.225,4.56,0,7.778,2.771,7.778,7.062,0,6.346-6.884,11.71-19.4,13.587a6.434,6.434,0,0,0-.089,1.609c0,5.989,2.682,8.314,7.6,8.314a23.616,23.616,0,0,0,8.224-1.609l.984,2.5a23.1,23.1,0,0,1-13.052,4.916C632.787-77.131,627.871-81.6,627.871-89.289Zm8.045-6.7c8.314-1.788,11.711-5.185,11.711-9.565,0-2.593-1.251-3.665-3.039-3.665C641.012-109.223,636.631-103.77,635.916-95.993Zm-37.992,6.615c0-2.5.179-5.543.179-11.442a22.882,22.882,0,0,0-.894-7.152c-.715-.447-2.146-.8-4.917-.8l-.715-2.146a21.859,21.859,0,0,1,8.761-2.592c2.681,0,4.827,1.967,4.827,11.264,0,4.023-.358,7.777-.358,11.89,0,7.062.715,8.581,2.056,8.581,3.576,0,10.548-11.353,10.995-26.1a22.5,22.5,0,0,0-3.843-.894l-.715-2.146a16.961,16.961,0,0,1,8.224-2.592c2.593,0,4.023,1.7,4.023,4.827,0,12.873-11.71,31.555-21.186,31.555C599.89-77.131,597.924-79.366,597.924-89.378Zm-21.1,5.185a54.257,54.257,0,0,1,1.431-9.476,59.488,59.488,0,0,0,1.341-9.744c0-2.056-.447-3.576-1.162-4.2-3.844.447-10.637,7.062-12.068,14.035-1.162,4.827-1.341,8.313-1.341,15.733l-8.492.715,2.5-16.538c1.073-6.526,1.341-9.028,1.341-11.353a9.627,9.627,0,0,0-.358-2.86c-.714-.536-2.324-.894-5.274-.894l-.715-2.146a21.477,21.477,0,0,1,8.672-2.592c2.5,0,4.112,2.414,4.112,11.353h.179c4.38-7.508,8.85-11.353,13.051-11.353,3.844,0,6.883,3.218,6.883,8.314a55.888,55.888,0,0,1-1.341,9.386c-.8,4.023-1.609,7.688-1.609,9.923,0,1.877.625,2.86,1.7,3.4a15.245,15.245,0,0,0,4.738-1.43l.894,2.414a17.8,17.8,0,0,1-9.118,4.38A7.217,7.217,0,0,1,576.827-84.193ZM537.4-84.282a53.475,53.475,0,0,1,1.431-9.387,72.7,72.7,0,0,0,1.609-11.531,9.311,9.311,0,0,0-.448-2.771c-.8-.447-2.414-.8-5.184-.8l-.715-2.146a23.113,23.113,0,0,1,8.85-2.592c2.682,0,4.738,2.324,4.738,6.7A58.542,58.542,0,0,1,546.344-96.8a64.273,64.273,0,0,0-1.787,10.906c0,1.877.536,2.86,1.52,3.4a14.859,14.859,0,0,0,4.916-1.52l.894,2.5a18.081,18.081,0,0,1-9.208,4.38A7.194,7.194,0,0,1,537.4-84.282Zm4.38-37.993a4.885,4.885,0,0,1,4.738-5.006,3.585,3.585,0,0,1,3.486,3.843c0,2.593-1.43,5.006-4.648,5.006A3.55,3.55,0,0,1,541.785-122.275ZM696.614-143.5a5.172,5.172,0,0,1,2.682-4.29,16.892,16.892,0,0,0,10.28,4.29c1.967,0,5.632-5.452,9.208-14.571l-.358-.089c-1.787,1.609-3.844,2.86-6.079,2.86-3.487,0-5.989-3.04-5.989-11.085,0-2.5.179-5.542.179-11.442a22.857,22.857,0,0,0-.894-7.152c-.715-.447-2.145-.8-4.917-.8l-.715-2.145a21.852,21.852,0,0,1,8.761-2.593c2.682,0,4.827,1.967,4.827,11.264,0,4.023-.358,7.778-.358,11.89,0,5.274.8,7.419,2.324,7.419,1.7,0,4.023-2.234,5.721-6.436a114.334,114.334,0,0,0,5.811-18.5,21.4,21.4,0,0,0-4.649-.894l-.715-2.145a18.075,18.075,0,0,1,6.436-2.324,7.406,7.406,0,0,1,2.414-.089c2.146.178,3.4,1.788,3.4,4.648,0,2.771-1.162,7.062-5.811,18.057-9.3,22.616-15.2,28.427-23.6,28.427C700.458-139.2,696.614-140.993,696.614-143.5Zm-110.132,0a5.084,5.084,0,0,1,2.95-4.29c2.057,2.324,5.99,4.47,8.672,4.47,1.341,0,2.414-1.788,3.933-14.929l3.218-27.354c-4.56-.268-5.989-1.341-6.347-3.04l-.178-.894,7.062-.268c1.52-10.012,7.152-16.18,14.3-16.18,4.29,0,7.33,2.145,7.33,4.917a8.882,8.882,0,0,1-1.7,4.023h-.179c-3.218-2.771-6.436-4.738-8.581-4.738s-3.129,2.146-4.023,11.979h8.045l-1.073,4.38h-7.33l-2.771,21.812c-1.431,11.174-3.576,16.538-6.347,19.935a10.65,10.65,0,0,1-8.761,4.47C590.057-139.2,586.482-140.993,586.482-143.5Zm-133.285,0a5.082,5.082,0,0,1,2.95-4.29c2.056,2.324,5.989,4.47,8.671,4.47,1.341,0,2.414-1.788,3.933-14.929l3.218-27.354c-4.559-.268-5.989-1.341-6.346-3.04l-.179-.894,7.062-.268c1.52-10.012,7.151-16.18,14.3-16.18,4.291,0,7.33,2.145,7.33,4.917a8.882,8.882,0,0,1-1.7,4.023h-.178c-3.218-2.771-6.436-4.738-8.581-4.738s-3.129,2.146-4.023,11.979H487.7l-1.073,4.38H479.3l-2.771,21.812c-1.431,11.174-3.576,16.538-6.347,19.935a10.65,10.65,0,0,1-8.761,4.47C456.773-139.2,453.2-140.993,453.2-143.5Zm193.625-18.147c0-2.682,1.609-4.916,4.291-6.257l.178.089c.626,5.363,4.559,9.118,9.386,9.118,2.95,0,4.649-1.519,4.649-3.486,0-1.788-1.341-3.307-7.33-7.867-5.185-4.023-6.168-6.257-6.168-9.208,0-4.827,6.526-11.264,12.6-11.264,4.559,0,7.6,2.593,7.6,5.274a4.641,4.641,0,0,1-3.04,4.113c-1.877-2.771-4.559-4.38-7.241-4.38-2.5,0-4.469,1.609-4.469,3.129,0,1.609,1.162,2.95,6.436,6.793,5.989,4.56,7.419,6.973,7.419,9.923,0,5.9-5.989,11.621-13.766,11.621C650.845-154.044,646.822-157.709,646.822-161.642Zm108.166-4.648c0-11.979,9.118-24.226,19.4-24.226,4.559,0,7.777,2.771,7.777,7.062,0,6.347-6.883,11.71-19.4,13.588a6.44,6.44,0,0,0-.089,1.609c0,5.989,2.682,8.313,7.6,8.313a23.6,23.6,0,0,0,8.224-1.609l.984,2.5a23.1,23.1,0,0,1-13.052,4.916C759.9-154.133,754.988-158.6,754.988-166.29Zm8.045-6.7c8.314-1.788,11.71-5.185,11.71-9.565,0-2.592-1.251-3.665-3.04-3.665C768.129-186.225,763.748-180.772,763.033-172.995Zm-25.3,11.71c0-2.592,1.251-10.1,2.5-17.878,1.341-7.778,2.5-15.555,2.5-18.952,0-1.877-.894-2.414-2.234-2.414a10.03,10.03,0,0,0-3.754.715l-1.252-2.5a23.937,23.937,0,0,1,12.425-3.665,5.607,5.607,0,0,1,2.95,2.771l-4.738,30.393a72.134,72.134,0,0,0-1.251,9.923c0,1.878.536,2.86,1.52,3.4a16.29,16.29,0,0,0,4.916-1.43l.894,2.414a18.144,18.144,0,0,1-9.118,4.38A7.008,7.008,0,0,1,737.735-161.285Zm-59.089.178a54.376,54.376,0,0,1,.894-8.671l2.235-15.822c-4.291-.358-5.363-1.431-5.632-2.95l-.179-.894,6.347-.178,1.073-7.062,7.777-3.04-1.43,9.923h8.045l-1.073,4.38h-7.6c-2.5,16.18-2.95,19.756-2.95,22.259,0,2.414.894,3.4,2.682,3.4a17.008,17.008,0,0,0,6.972-1.878l.894,2.5c-3.04,2.682-7.688,5.006-11.263,5.006C681.239-154.133,678.646-156.636,678.646-161.106Zm-60.7-5.184c0-11.979,9.118-24.226,19.4-24.226,4.56,0,7.778,2.771,7.778,7.062,0,6.347-6.883,11.71-19.4,13.588a6.38,6.38,0,0,0-.09,1.609c0,5.989,2.682,8.313,7.6,8.313a23.6,23.6,0,0,0,8.224-1.609l.983,2.5a23.1,23.1,0,0,1-13.051,4.916C622.864-154.133,617.948-158.6,617.948-166.29Zm8.045-6.7c8.314-1.788,11.71-5.185,11.71-9.565,0-2.592-1.251-3.665-3.039-3.665C631.089-186.225,626.709-180.772,625.993-172.995Zm-43.623,11.71a53.444,53.444,0,0,1,1.43-9.386,72.622,72.622,0,0,0,1.609-11.532,9.316,9.316,0,0,0-.447-2.771c-.8-.447-2.414-.8-5.185-.8l-.714-2.145a23.1,23.1,0,0,1,8.85-2.593c2.681,0,4.737,2.324,4.737,6.7a58.52,58.52,0,0,1-1.341,10.012,64.209,64.209,0,0,0-1.787,10.906c0,1.878.536,2.86,1.519,3.4a14.878,14.878,0,0,0,4.917-1.519l.894,2.5a18.084,18.084,0,0,1-9.208,4.38A7.194,7.194,0,0,1,582.37-161.285Zm-19.13,0c0-2.592,1.251-10.1,2.5-17.878,1.341-7.778,2.5-15.555,2.5-18.952,0-1.877-.895-2.414-2.235-2.414a10.03,10.03,0,0,0-3.754.715l-1.251-2.5a23.937,23.937,0,0,1,12.426-3.665,5.608,5.608,0,0,1,2.95,2.771l-4.738,30.393a72.154,72.154,0,0,0-1.251,9.923c0,1.878.536,2.86,1.52,3.4a16.292,16.292,0,0,0,4.916-1.43l.894,2.414a18.14,18.14,0,0,1-9.118,4.38A7.009,7.009,0,0,1,563.239-161.285Zm-39.422-9.565a87.133,87.133,0,0,0,1.162-11.174,8.736,8.736,0,0,0-.358-2.861c-.625-.536-2.056-.894-5.006-.894l-.8-2.234a23.027,23.027,0,0,1,8.582-2.5c2.5,0,4.112,2.414,4.112,11.354h.09c2.592-7.062,7.33-11.354,10.1-11.354,2.234,0,3.754,2.86,3.844,7.509-8.492.536-12.962,3.844-14.749,12.515-.894,4.38-1.073,8.045-.984,15.644l-8.581.715Zm-38.528,3.129c0-13.677,9.3-22.8,18.325-22.8,7.152,0,12.247,5.185,12.247,13.588,0,13.677-9.3,22.8-18.326,22.8C490.295-154.133,485.289-159.318,485.289-167.721Zm7.955-1.7c0,7.6,2.771,10.906,6.169,10.906,4.737,0,8.492-5.811,8.492-16.717,0-7.6-2.771-10.906-6.258-10.906C496.91-186.136,493.244-180.236,493.244-169.419Zm93.506-29.857a4.885,4.885,0,0,1,4.738-5.006,3.585,3.585,0,0,1,3.486,3.844c0,2.592-1.43,5.006-4.648,5.006A3.55,3.55,0,0,1,586.75-199.276Z" transform="translate(-453.197 205.981)" fill="#ea2427"/>
</svg>
