<svg xmlns="http://www.w3.org/2000/svg" xmlns:xlink="http://www.w3.org/1999/xlink" width="1592.488" height="419.86" viewBox="0 0 1592.488 419.86">
  <defs>
    <clipPath id="clip-path">
      <rect id="Rectangle_92" data-name="Rectangle 92" width="337.522" height="119.017" fill="#eff0ef"/>
    </clipPath>
    <clipPath id="clip-path-2">
      <rect id="Rectangle_93" data-name="Rectangle 93" width="288.964" height="108.996" fill="#eff0ef"/>
    </clipPath>
    <clipPath id="clip-path-3">
      <rect id="Rectangle_94" data-name="Rectangle 94" width="342.193" height="155.604" fill="#eff0ef"/>
    </clipPath>
    <clipPath id="clip-path-4">
      <rect id="Rectangle_97" data-name="Rectangle 97" width="397.107" height="131.225" fill="#eff0ef"/>
    </clipPath>
    <clipPath id="clip-path-5">
      <rect id="Rectangle_98" data-name="Rectangle 98" width="279.283" height="158.72" fill="#eff0ef"/>
    </clipPath>
    <clipPath id="clip-path-6">
      <rect id="Rectangle_100" data-name="Rectangle 100" width="282.455" height="107.496" fill="#eff0ef"/>
    </clipPath>
    <clipPath id="clip-path-7">
      <rect id="Rectangle_101" data-name="Rectangle 101" width="366.175" height="81.467" fill="#eff0ef"/>
    </clipPath>
  </defs>
  <g id="Group_169" data-name="Group 169" transform="translate(-309 -5085.162)">
    <g id="Group_170" data-name="Group 170">
      <g id="Group_152" data-name="Group 152" transform="translate(1563.966 5131.771)">
        <g id="Group_151" data-name="Group 151" clip-path="url(#clip-path)">
          <path id="Path_745" data-name="Path 745" d="M23.3,27.356H0V78.325H14.417V65H23.3c13.907,0,22.645-7.208,22.645-18.786,0-11.65-8.738-18.859-22.645-18.859m-.873,26.285H14.417V38.715h8.009c5.971,0,8.956,2.767,8.956,7.5,0,4.66-2.985,7.427-8.956,7.427m19.4-26.285c.466.332.922.673,1.359,1.036a21.507,21.507,0,0,1,6.927,10.4h7.352V78.325H71.877V38.788H87.458V27.356Z" transform="translate(0 -9.538)" fill="#eff0ef"/>
          <path id="Path_746" data-name="Path 746" d="M326.913,28.3H284.772c-7.849.018-14.384,6.492-14.384,15.072s6.626,15.218,14.417,15.218c7.864,0,14.125-6.626,14.125-15.218a15.645,15.645,0,0,0-3.437-9.982h14.819a25.725,25.725,0,0,1,1.943,9.909c0,14.854-11.8,26.141-27.6,26.141-15.728,0-27.523-11.213-27.523-26.141,0-14.854,11.8-25.484,27.523-25.484h42.254ZM161.139,17.891V68.86H174.1V54.516h9.247c13.034,0,20.533-6.917,20.533-18.858,0-11.359-7.5-17.766-20.533-17.766ZM174.1,28.085h8.592c5.68,0,8.956,2.695,8.956,8.009,0,5.388-3.276,8.228-8.956,8.228H174.1ZM239.582,68.86H254.29l-10.7-16.819c5.97-2.986,9.247-8.592,9.247-16.383,0-11.359-7.718-17.766-21.189-17.766H208.854V68.86h12.961V54.516h10.194ZM221.815,44.322V28.085h9.83c5.607,0,8.883,2.694,8.883,8.009,0,5.388-3.276,8.228-8.883,8.228ZM392.9,28.085V17.891H353V68.86h40.7V58.666H365.963V48.4h24.319V38.206H365.963V28.085ZM333.439,17.818V52.041c0,4.15-2.039,6.262-5.461,6.262-2.967,0-7.012-1.872-10.635-5.611a30.884,30.884,0,0,1-4.943,9.774,22.3,22.3,0,0,0,16.452,6.978c10.849,0,17.62-6.263,17.62-17.111V17.818ZM346.473,5.329,339.849,0l-6.624,5.328v7.993h13.248Z" transform="translate(-56.184 0)" fill="#eff0ef"/>
          <path id="Path_747" data-name="Path 747" d="M216.988,161.37c0,2.854-2.065,4.58-5.481,4.58h-3.248v3.98h-1.877V156.79h5.125c3.416,0,5.481,1.727,5.481,4.58m-1.877,0c0-1.877-1.258-2.947-3.661-2.947h-3.191v5.895h3.191c2.4,0,3.661-1.07,3.661-2.947" transform="translate(-71.959 -54.667)" fill="#eff0ef"/>
          <path id="Path_748" data-name="Path 748" d="M230.657,161.545v1.746a3.16,3.16,0,0,0-.413-.019c-1.933,0-3.135,1.183-3.135,3.36v4.956h-1.8v-9.949h1.727v1.671a3.8,3.8,0,0,1,3.623-1.764" transform="translate(-78.557 -56.325)" fill="#eff0ef"/>
          <path id="Path_749" data-name="Path 749" d="M234.337,166.614a5.172,5.172,0,1,1,5.18,5.087,4.95,4.95,0,0,1-5.18-5.087m8.522,0a3.354,3.354,0,1,0-3.342,3.51,3.265,3.265,0,0,0,3.342-3.51" transform="translate(-81.706 -56.326)" fill="#eff0ef"/>
          <path id="Path_750" data-name="Path 750" d="M263.392,166.614a4.834,4.834,0,0,1-5.031,5.087,4.25,4.25,0,0,1-3.473-1.614v5.143h-1.8V161.64h1.727v1.577a4.236,4.236,0,0,1,3.548-1.671,4.829,4.829,0,0,1,5.031,5.068m-1.821,0a3.354,3.354,0,1,0-3.36,3.51,3.289,3.289,0,0,0,3.36-3.51" transform="translate(-88.243 -56.326)" fill="#eff0ef"/>
          <path id="Path_751" data-name="Path 751" d="M280.54,167.214h-8.072a3.37,3.37,0,0,0,3.6,2.91,3.716,3.716,0,0,0,2.872-1.2l.995,1.164a5.423,5.423,0,0,1-9.273-3.473,4.873,4.873,0,0,1,4.993-5.068,4.8,4.8,0,0,1,4.918,5.125c0,.15-.019.375-.037.545m-8.072-1.3h6.382a3.211,3.211,0,0,0-6.382,0" transform="translate(-94.372 -56.325)" fill="#eff0ef"/>
          <path id="Path_752" data-name="Path 752" d="M294.043,161.545v1.746a3.161,3.161,0,0,0-.413-.019c-1.933,0-3.135,1.183-3.135,3.36v4.956h-1.8v-9.949h1.727v1.671a3.8,3.8,0,0,1,3.623-1.764" transform="translate(-100.658 -56.325)" fill="#eff0ef"/>
          <path id="Path_753" data-name="Path 753" d="M305.2,169.891a3.4,3.4,0,0,1-2.177.694,2.839,2.839,0,0,1-3.154-3.116v-5.462h-1.69v-1.483h1.69v-2.177h1.8v2.177h2.853v1.483h-2.853v5.387a1.466,1.466,0,0,0,1.558,1.671,2.265,2.265,0,0,0,1.408-.47Z" transform="translate(-103.964 -55.21)" fill="#eff0ef"/>
          <path id="Path_754" data-name="Path 754" d="M319.685,161.689l-4.824,10.944c-.882,2.1-2.027,2.759-3.548,2.759a3.733,3.733,0,0,1-2.553-.92l.769-1.352a2.546,2.546,0,0,0,1.783.732c.864,0,1.408-.394,1.9-1.539l.319-.694-4.393-9.93h1.877l3.473,7.959,3.435-7.959Z" transform="translate(-107.654 -56.376)" fill="#eff0ef"/>
          <path id="Path_755" data-name="Path 755" d="M338.25,159.493v10.456h-3.341V159.493h-3.923v-2.7H342.21v2.7Z" transform="translate(-115.404 -54.668)" fill="#eff0ef"/>
          <path id="Path_756" data-name="Path 756" d="M362.5,164.44c0,3.473-2.309,5.669-5.988,5.669-3.7,0-6.063-2.2-6.063-5.669v-7.621H353.8v7.621a2.647,2.647,0,0,0,2.74,2.872,2.588,2.588,0,0,0,2.647-2.872v-7.621H362.5Z" transform="translate(-122.192 -54.678)" fill="#eff0ef"/>
          <path id="Path_757" data-name="Path 757" d="M377.186,166.261h-2.628v3.7h-3.341v-13.14h5.876c3.473,0,5.463,1.652,5.463,4.58a4.379,4.379,0,0,1-2.385,4.224l2.76,4.336h-3.792Zm-.094-2.628a2,2,0,0,0,2.29-2.121c0-1.37-.845-2.065-2.29-2.065h-2.534v4.186Z" transform="translate(-129.431 -54.678)" fill="#eff0ef"/>
          <path id="Path_758" data-name="Path 758" d="M396.5,164.8l-1.746,1.933v3.229h-3.341V156.819h3.341v5.687l5.03-5.687h3.867l-4.88,5.443,5.2,7.7h-4Z" transform="translate(-136.473 -54.678)" fill="#eff0ef"/>
          <path id="Path_759" data-name="Path 759" d="M415.39,159.447v2.609h6.27v2.628h-6.27v2.646h7.152v2.628H412.049v-13.14h10.287v2.628Z" transform="translate(-143.668 -54.677)" fill="#eff0ef"/>
          <path id="Path_760" data-name="Path 760" d="M437.032,169.959H433.71v-4.148l-4.862-8.992h3.341l3.173,5.725,3.1-5.725H441.8l-4.768,8.9Z" transform="translate(-149.525 -54.678)" fill="#eff0ef"/>
          <path id="Path_761" data-name="Path 761" d="M72.967,161.634h-3.71l-2,9.988h1.427l.605-3.025h2.662a6,6,0,0,0,2.5-.478,3.6,3.6,0,0,0,1.619-1.383,4.034,4.034,0,0,0,.564-2.177,2.61,2.61,0,0,0-.956-2.154,4.218,4.218,0,0,0-2.711-.771m1.391,5.043a3.713,3.713,0,0,1-2.376.678h-2.44l.9-4.48h2.4a2.9,2.9,0,0,1,1.755.457,1.582,1.582,0,0,1,.614,1.355,2.393,2.393,0,0,1-.849,1.99" transform="translate(-23.451 -56.356)" fill="#eff0ef"/>
          <path id="Path_762" data-name="Path 762" d="M88.672,165.647a4.128,4.128,0,0,0-1.869-.4,4.516,4.516,0,0,0-2.29.578,4.169,4.169,0,0,0-1.577,1.583,4.561,4.561,0,0,0-.571,2.29,3.266,3.266,0,0,0,.442,1.72,3.014,3.014,0,0,0,1.234,1.142,4.057,4.057,0,0,0,1.876.406,4.421,4.421,0,0,0,2.29-.586,4.247,4.247,0,0,0,1.563-1.59,4.562,4.562,0,0,0,.571-2.291,3.3,3.3,0,0,0-.436-1.727,2.926,2.926,0,0,0-1.234-1.127m-.092,4.573A2.831,2.831,0,0,1,86,171.768a2.292,2.292,0,0,1-1.669-.571,2.075,2.075,0,0,1-.586-1.556,3.472,3.472,0,0,1,.386-1.662,2.836,2.836,0,0,1,2.568-1.534,2.311,2.311,0,0,1,1.67.563,2.07,2.07,0,0,1,.585,1.563,3.493,3.493,0,0,1-.378,1.648" transform="translate(-28.718 -57.616)" fill="#eff0ef"/>
          <path id="Path_763" data-name="Path 763" d="M107.776,165.358l-3.386,6-1.137-6h-1.17l-3.425,6-1.112-6H96.3l1.441,7.562h1.313l3.276-5.717,1.162,5.717h1.341l4.238-7.562Z" transform="translate(-33.578 -57.655)" fill="#eff0ef"/>
          <path id="Path_764" data-name="Path 764" d="M121.447,165.64a3.821,3.821,0,0,0-1.784-.393,4.135,4.135,0,0,0-3.71,2.155,4.613,4.613,0,0,0-.556,2.283,3.293,3.293,0,0,0,.442,1.733,2.99,2.99,0,0,0,1.256,1.142,4.27,4.27,0,0,0,1.926.406,5.177,5.177,0,0,0,1.684-.277,3.571,3.571,0,0,0,1.356-.806l-.585-.985a2.847,2.847,0,0,1-1.013.634,3.658,3.658,0,0,1-1.327.236,2.532,2.532,0,0,1-1.8-.564,2.09,2.09,0,0,1-.593-1.591c0-.029,0-.056,0-.085h6.2c.029-.152.052-.317.071-.492a4.715,4.715,0,0,0,.029-.521,3.448,3.448,0,0,0-.421-1.755,2.854,2.854,0,0,0-1.177-1.12m-4.352,2.283A2.725,2.725,0,0,1,118.1,166.8a2.779,2.779,0,0,1,1.506-.406,2.511,2.511,0,0,1,1.248.292,1.752,1.752,0,0,1,.763.842,2.146,2.146,0,0,1,.151,1.006h-4.893a3.252,3.252,0,0,1,.219-.606" transform="translate(-40.235 -57.616)" fill="#eff0ef"/>
          <path id="Path_765" data-name="Path 765" d="M133.617,166.574l.257-1.327a4.692,4.692,0,0,0-2.013.386,2.781,2.781,0,0,0-.991.819l.221-1.132h-1.313l-1.5,7.562h1.37l.756-3.781a3.219,3.219,0,0,1,.991-1.927,2.811,2.811,0,0,1,1.862-.614h.186a1.014,1.014,0,0,1,.171.014" transform="translate(-44.727 -57.616)" fill="#eff0ef"/>
          <path id="Path_766" data-name="Path 766" d="M142.228,165.64a3.821,3.821,0,0,0-1.784-.393,4.135,4.135,0,0,0-3.71,2.155,4.613,4.613,0,0,0-.556,2.283,3.293,3.293,0,0,0,.442,1.733,2.99,2.99,0,0,0,1.256,1.142,4.27,4.27,0,0,0,1.926.406,5.177,5.177,0,0,0,1.684-.277,3.571,3.571,0,0,0,1.356-.806l-.585-.985a2.848,2.848,0,0,1-1.013.634,3.658,3.658,0,0,1-1.327.236,2.532,2.532,0,0,1-1.8-.564,2.09,2.09,0,0,1-.593-1.591c0-.029,0-.056,0-.085h6.2c.029-.152.052-.317.071-.492a4.715,4.715,0,0,0,.029-.521,3.448,3.448,0,0,0-.421-1.755,2.854,2.854,0,0,0-1.177-1.12m-4.352,2.283a2.725,2.725,0,0,1,1.006-1.127,2.779,2.779,0,0,1,1.506-.406,2.511,2.511,0,0,1,1.248.292,1.752,1.752,0,0,1,.763.842,2.146,2.146,0,0,1,.151,1.006h-4.893a3.253,3.253,0,0,1,.219-.606" transform="translate(-47.481 -57.616)" fill="#eff0ef"/>
          <path id="Path_767" data-name="Path 767" d="M156.418,165.033c0-.006-.005-.012-.008-.019a2.424,2.424,0,0,0-1.056-1.006,3.71,3.71,0,0,0-1.669-.343,4.354,4.354,0,0,0-1.7.328,4.019,4.019,0,0,0-1.363.928,4.254,4.254,0,0,0-.9,1.412,4.815,4.815,0,0,0-.322,1.784,3.354,3.354,0,0,0,.436,1.755,2.935,2.935,0,0,0,1.191,1.121,3.659,3.659,0,0,0,1.712.392,3.97,3.97,0,0,0,1.684-.343,3.638,3.638,0,0,0,1-.709l-.2.965h1.313l2.112-10.587h-1.37Zm-1.849,4.74a2.847,2.847,0,0,1-1.527.414,2.292,2.292,0,0,1-1.669-.571,2.072,2.072,0,0,1-.586-1.555,3.472,3.472,0,0,1,.386-1.662,2.832,2.832,0,0,1,2.568-1.534,2.314,2.314,0,0,1,1.67.563A2.07,2.07,0,0,1,156,166.99a3.5,3.5,0,0,1-.378,1.649,2.874,2.874,0,0,1-1.049,1.134" transform="translate(-52.092 -56.035)" fill="#eff0ef"/>
          <path id="Path_768" data-name="Path 768" d="M178.57,168.7a4.809,4.809,0,0,0,.321-1.783,3.367,3.367,0,0,0-.435-1.748,2.882,2.882,0,0,0-1.184-1.12,3.711,3.711,0,0,0-1.72-.386,3.978,3.978,0,0,0-1.684.343,3.659,3.659,0,0,0-.924.635l.8-3.931h-1.37L170.258,171.3h1.3l.282-1.376c.016.033.029.068.046.1a2.463,2.463,0,0,0,1.063,1.013,3.648,3.648,0,0,0,1.662.349,4.277,4.277,0,0,0,1.7-.335,4.13,4.13,0,0,0,1.363-.935,4.26,4.26,0,0,0,.9-1.413m-1.448-.064a2.946,2.946,0,0,1-1.049,1.134,2.811,2.811,0,0,1-1.52.414,2.294,2.294,0,0,1-1.67-.571,2.074,2.074,0,0,1-.585-1.556,3.523,3.523,0,0,1,.378-1.662,2.811,2.811,0,0,1,1.056-1.127,2.9,2.9,0,0,1,1.52-.406,2.31,2.31,0,0,1,1.669.563,2.068,2.068,0,0,1,.586,1.563,3.443,3.443,0,0,1-.386,1.648" transform="translate(-59.363 -56.035)" fill="#eff0ef"/>
          <path id="Path_769" data-name="Path 769" d="M190.389,165.358l-3.816,6.056-1.45-6.056h-1.37l1.829,7.522-.388.6a2.911,2.911,0,0,1-.778.877,1.51,1.51,0,0,1-.849.249,1.832,1.832,0,0,1-.72-.135,1.753,1.753,0,0,1-.564-.378l-.713,1.013a2.018,2.018,0,0,0,.828.492,3.332,3.332,0,0,0,1.07.178,2.957,2.957,0,0,0,1.077-.185,2.706,2.706,0,0,0,.92-.628,7.551,7.551,0,0,0,.942-1.213l5.365-8.39Z" transform="translate(-63.308 -57.655)" fill="#eff0ef"/>
        </g>
      </g>
      <g id="Group_154" data-name="Group 154" transform="translate(781.675 5131.771)">
        <g id="Group_153" data-name="Group 153" clip-path="url(#clip-path-2)">
          <path id="Path_770" data-name="Path 770" d="M43.365,16.961c0,10.566-7.646,16.961-20.3,16.961H11.042V48.659H4.091V0H23.068c12.651,0,20.3,6.395,20.3,16.961m-6.951,0c0-6.951-4.657-10.914-13.555-10.914H11.042V27.875H22.859c8.9,0,13.555-3.962,13.555-10.914" transform="translate(-2.515)" fill="#eff0ef"/>
          <path id="Path_771" data-name="Path 771" d="M142.38,29.769v6.465a11.744,11.744,0,0,0-1.529-.07c-7.16,0-11.609,4.38-11.609,12.443V66.958h-6.673V30.117h6.395V36.3c2.364-4.31,6.951-6.534,13.416-6.534" transform="translate(-75.345 -18.299)" fill="#eff0ef"/>
          <path id="Path_772" data-name="Path 772" d="M179.091,48.537c0-10.983,8.133-18.768,19.186-18.768s19.116,7.785,19.116,18.768-8.064,18.838-19.116,18.838-19.186-7.855-19.186-18.838m31.559,0c0-7.855-5.283-12.929-12.373-12.929s-12.443,5.075-12.443,12.929,5.352,13,12.443,13,12.373-5.144,12.373-13" transform="translate(-110.09 -18.299)" fill="#eff0ef"/>
          <path id="Path_773" data-name="Path 773" d="M334.633,48.537c0,11.33-7.855,18.838-18.629,18.838a15.734,15.734,0,0,1-12.86-5.978V80.444H296.47V30.117h6.4v5.839c2.989-4.1,7.716-6.187,13.138-6.187,10.774,0,18.629,7.507,18.629,18.768m-6.743,0c0-7.785-5.352-12.929-12.442-12.929-7.021,0-12.373,5.144-12.373,12.929,0,7.855,5.352,13,12.373,13,7.09,0,12.442-5.144,12.442-13" transform="translate(-182.244 -18.299)" fill="#eff0ef"/>
          <path id="Path_774" data-name="Path 774" d="M443.088,50.762H413.2c.834,6.465,6.047,10.775,13.346,10.775a13.756,13.756,0,0,0,10.635-4.449l3.684,4.31c-3.337,3.893-8.411,5.978-14.528,5.978-11.886,0-19.811-7.855-19.811-18.838,0-10.913,7.855-18.768,18.49-18.768s18.212,7.646,18.212,18.977c0,.556-.07,1.39-.139,2.016m-29.89-4.8h23.634a11.891,11.891,0,0,0-23.634,0" transform="translate(-249.896 -18.299)" fill="#eff0ef"/>
          <path id="Path_775" data-name="Path 775" d="M539.187,29.769v6.465a11.742,11.742,0,0,0-1.529-.07c-7.16,0-11.609,4.38-11.609,12.443V66.958h-6.673V30.117h6.395V36.3c2.364-4.31,6.951-6.534,13.416-6.534" transform="translate(-319.268 -18.299)" fill="#eff0ef"/>
          <path id="Path_776" data-name="Path 776" d="M604.748,52.493a12.59,12.59,0,0,1-8.064,2.572c-7.438,0-11.678-4.1-11.678-11.539V23.3H578.75V17.806h6.256V9.743h6.673v8.063h10.566V23.3H591.679v19.95c0,3.962,2.086,6.187,5.77,6.187a8.4,8.4,0,0,0,5.213-1.738Z" transform="translate(-355.766 -5.989)" fill="#eff0ef"/>
          <path id="Path_777" data-name="Path 777" d="M685.453,30.671,667.589,71.2c-3.267,7.785-7.508,10.218-13.138,10.218A13.832,13.832,0,0,1,645,78.009l2.85-5a9.427,9.427,0,0,0,6.6,2.711c3.2,0,5.213-1.46,7.021-5.7l1.182-2.572L646.387,30.671h6.951L666.2,60.144l12.721-29.473Z" transform="translate(-396.489 -18.854)" fill="#eff0ef"/>
          <path id="Path_778" data-name="Path 778" d="M26.9,164.989v38.718H14.528V164.989H0v-10.01H41.568v10.01Z" transform="translate(0 -95.268)" fill="#eff0ef"/>
          <path id="Path_779" data-name="Path 779" d="M166.5,183.382c0,12.86-8.55,20.993-22.175,20.993-13.694,0-22.452-8.133-22.452-20.993V155.16h12.373v28.222c0,6.6,4.24,10.635,10.149,10.635,5.839,0,9.8-4.032,9.8-10.635V155.16h12.3Z" transform="translate(-74.92 -95.379)" fill="#eff0ef"/>
          <path id="Path_780" data-name="Path 780" d="M273.967,190.125h-9.732v13.694H251.862V155.16h21.757c12.86,0,20.228,6.117,20.228,16.961,0,7.438-3.128,12.79-8.828,15.64l10.218,16.058H281.2Zm-.348-9.732c5.352,0,8.48-2.711,8.48-7.855,0-5.074-3.128-7.646-8.48-7.646h-9.384v15.5Z" transform="translate(-154.823 -95.379)" fill="#eff0ef"/>
          <path id="Path_781" data-name="Path 781" d="M397.136,184.7l-6.465,7.16v11.956H378.3V155.16h12.373v21.062L409.3,155.16h14.32l-18.073,20.159,19.255,28.5H410Z" transform="translate(-232.546 -95.379)" fill="#eff0ef"/>
          <path id="Path_782" data-name="Path 782" d="M519.85,164.891v9.662h23.217v9.732H519.85v9.8h26.484v9.732H507.477V155.159H545.57v9.732Z" transform="translate(-311.954 -95.379)" fill="#eff0ef"/>
          <path id="Path_783" data-name="Path 783" d="M642.949,203.819h-12.3V188.456l-18-33.3h12.373l11.748,21.2,11.469-21.2h12.373l-17.656,32.949Z" transform="translate(-376.6 -95.379)" fill="#eff0ef"/>
        </g>
      </g>
      <g id="Group_157" data-name="Group 157" transform="translate(1146.206 5085.163)">
        <path id="Path_784" data-name="Path 784" d="M0,382.645v35.749H8.375V404.605h9.372v-6.946H8.375v-8.273H26.761v-6.741Z" transform="translate(0 -274.077)" fill="#eff0ef"/>
        <g id="Group_156" data-name="Group 156">
          <g id="Group_155" data-name="Group 155" clip-path="url(#clip-path-3)">
            <path id="Path_785" data-name="Path 785" d="M95.73,440.276a9.909,9.909,0,0,1-8.989,5c-6.843,0-9.754-4.137-9.754-9.959V419.184h8.069v13.942c0,3.779,1.43,5.567,4.494,5.567s5.311-2.247,5.362-6.537V419.184h8.018v25.382H96.343Z" transform="translate(-55.144 -300.249)" fill="#eff0ef"/>
            <path id="Path_786" data-name="Path 786" d="M186.925,417.508l.664,4.6a10.339,10.339,0,0,1,9.4-5.26c6.588,0,9.448,4.035,9.448,10.112V442.89h-8.069V429.663c0-4.392-1.532-5.822-4.494-5.822-3.269,0-5.516,2.2-5.567,6.588V442.89h-8.069V417.508Z" transform="translate(-129.097 -298.573)" fill="#eff0ef"/>
            <path id="Path_787" data-name="Path 787" d="M301.81,414.462c-1.685,3.013-4.647,4.647-8.682,4.647-6.537,0-10.725-4.494-10.725-13.125,0-8.989,4.443-13.636,11.184-13.636a8.7,8.7,0,0,1,7.456,3.473V382.645h8.069v35.749h-6.894Zm-6.333-16.138c-3.422,0-5.26,2.2-5.26,7.456,0,4.954,1.736,7.3,5.311,7.3,3.269,0,5.618-2.3,5.618-7.354,0-5.311-2.4-7.405-5.669-7.405" transform="translate(-202.277 -274.077)" fill="#eff0ef"/>
            <path id="Path_788" data-name="Path 788" d="M391.06,378.145c2.962,0,4.647,1.277,4.647,4.188,0,2.809-1.685,4.137-4.647,4.137s-4.647-1.328-4.647-4.137c0-2.911,1.685-4.188,4.647-4.188m4.035,37.026h-8.069V389.789h8.069Z" transform="translate(-276.776 -270.854)" fill="#eff0ef"/>
            <path id="Path_789" data-name="Path 789" d="M434.764,417.508l.664,4.6a10.339,10.339,0,0,1,9.4-5.26c6.588,0,9.448,4.035,9.448,10.112V442.89H446.2V429.663c0-4.392-1.532-5.822-4.494-5.822-3.269,0-5.516,2.2-5.567,6.588V442.89h-8.069V417.508Z" transform="translate(-306.617 -298.573)" fill="#eff0ef"/>
            <path id="Path_790" data-name="Path 790" d="M556.309,441.869c0,8.427-5.975,12.308-14.249,12.308-5.005,0-9.55-1.481-11.593-5.567l4.545-3.932a7.133,7.133,0,0,0,6.741,3.728c4.035,0,6.537-1.992,6.537-6.435v-3.626c-1.583,2.809-4.188,4.239-7.967,4.239-6.384,0-10.623-4.239-10.623-12.768,0-8.631,4.341-12.972,11.082-12.972,3.779,0,6.69,1.43,8.325,4.341l.664-3.677h6.537Zm-13.585-19.1c-3.473,0-5.311,2.247-5.311,6.946,0,4.8,1.838,7,5.311,7,3.371,0,5.618-2.3,5.618-7.048,0-4.7-2.349-6.895-5.618-6.895" transform="translate(-379.409 -298.573)" fill="#eff0ef"/>
            <path id="Path_791" data-name="Path 791" d="M864.969,417.5h6.69l.664,5.056a9.448,9.448,0,0,1,9.091-5.72l.051,7.66c-5.669-.459-8.376,2.86-8.426,8.325v10.061h-8.069Z" transform="translate(-619.552 -298.564)" fill="#eff0ef"/>
            <path id="Path_792" data-name="Path 792" d="M932.937,382.645h8.018l-.2,21.96,9.4-11.593h8.733L949.229,404.3l9.755,14.1H950.1l-6.078-8.886-3.115,3.422v5.465h-7.967Z" transform="translate(-668.235 -274.077)" fill="#eff0ef"/>
            <path id="Path_793" data-name="Path 793" d="M1020.269,430.378c0-8.529,4.7-13.534,12.972-13.534,8.478,0,11.951,5.618,11.951,12.819a18.012,18.012,0,0,1-.2,2.758H1027.93c.357,4.035,2.451,5.669,6.128,5.669,2.758,0,4.6-.817,5.873-3.217l4.852,2.962c-2.094,3.932-6.077,5.771-11.338,5.771-8.069,0-13.176-4.239-13.176-13.227m7.661-2.6h9.856c-.2-3.575-1.787-5.311-4.7-5.311-2.962,0-4.852,1.685-5.158,5.311" transform="translate(-730.789 -298.573)" fill="#eff0ef"/>
            <path id="Path_794" data-name="Path 794" d="M1116.524,444.669l-10.01-25.484h8.325l5.924,16.9,5.72-16.9h8.274l-11.8,30.08c-1.992,5-5.72,6.537-10.47,6.537a14.1,14.1,0,0,1-5.465-.971l.817-5.771a9.07,9.07,0,0,0,3.677.817,4.252,4.252,0,0,0,4.341-3.218Z" transform="translate(-792.563 -300.25)" fill="#eff0ef"/>
            <path id="Path_795" data-name="Path 795" d="M702.728,382.645v7.048H691.8v28.7h-8.376v-28.7H672.494v-7.048Z" transform="translate(-481.687 -274.077)" fill="#eff0ef"/>
            <path id="Path_796" data-name="Path 796" d="M780.464,440.276a9.909,9.909,0,0,1-8.988,5c-6.844,0-9.755-4.137-9.755-9.959V419.184h8.069v13.942c0,3.779,1.43,5.567,4.494,5.567s5.311-2.247,5.362-6.537V419.184h8.018v25.382h-6.588Z" transform="translate(-545.598 -300.249)" fill="#eff0ef"/>
            <path id="Path_797" data-name="Path 797" d="M536.82,13.586v69.6H449.963V20.623Zm-73.175,56.7h8.376V56.5h16.036V49.555H472.021V41.282h18.385V34.54H463.645ZM494.564,34.54v7.048h10.929v28.7h8.375v-28.7H524.8V34.54Zm-44.6-27.506V13.7L536.82,6.661V0Z" transform="translate(-322.295)" fill="#eff0ef"/>
          </g>
        </g>
      </g>
      <g id="Group_160" data-name="Group 160" transform="translate(309 5109.542)">
        <g id="Group_159" data-name="Group 159" transform="translate(0 0)">
          <g id="Group_158" data-name="Group 158" clip-path="url(#clip-path-4)">
            <path id="Path_798" data-name="Path 798" d="M2.071,186.655a3.443,3.443,0,0,0,1.266-.5,1.815,1.815,0,0,0,.652-.786,2.672,2.672,0,0,0,.192-1.035V163.625a2.151,2.151,0,0,0-.844-1.8A6.209,6.209,0,0,0,0,161.094v-.46H12a18.4,18.4,0,0,1,6.27.978,12.812,12.812,0,0,1,4.526,2.7,11.127,11.127,0,0,1,2.742,4.084,13.958,13.958,0,0,1,.92,5.119,16.806,16.806,0,0,1-.805,5.158,12.171,12.171,0,0,1-2.512,4.429,12.477,12.477,0,0,1-4.353,3.087,15.572,15.572,0,0,1-6.328,1.17H0v-.5a11.892,11.892,0,0,0,2.071-.21m14-.633a6.264,6.264,0,0,0,3.125-2.09,9.376,9.376,0,0,0,1.687-3.949,30.722,30.722,0,0,0,.518-6.155,24.782,24.782,0,0,0-.633-6.136,9.287,9.287,0,0,0-1.879-3.835,6.411,6.411,0,0,0-3.125-1.956,16.145,16.145,0,0,0-4.41-.537H8.667v25.272h2.57a16.334,16.334,0,0,0,4.832-.614" transform="translate(0 -82.651)" fill="#eff0ef"/>
            <path id="Path_799" data-name="Path 799" d="M62.49,186.655a3.443,3.443,0,0,0,1.266-.5,1.821,1.821,0,0,0,.652-.786,2.673,2.673,0,0,0,.192-1.036V163.625a2.15,2.15,0,0,0-.844-1.8,6.2,6.2,0,0,0-3.337-.729v-.461H82.662l.115,8.629-.537.076q-.843-2.032-1.63-3.547a10,10,0,0,0-1.764-2.492,6.379,6.379,0,0,0-2.2-1.457,8.112,8.112,0,0,0-2.953-.48h-4.6v11.774h2.071a8.123,8.123,0,0,0,2.109-.249,4.4,4.4,0,0,0,1.649-.844,4.919,4.919,0,0,0,1.247-1.61,12.205,12.205,0,0,0,.9-2.55h.5v11.237h-.5a11.721,11.721,0,0,0-.9-2.531,5.211,5.211,0,0,0-1.247-1.611,4.266,4.266,0,0,0-1.649-.863,8.1,8.1,0,0,0-2.109-.249H69.086v12.77h4.526a10.684,10.684,0,0,0,3.451-.5,6.919,6.919,0,0,0,2.55-1.534,10.763,10.763,0,0,0,1.975-2.627,34.318,34.318,0,0,0,1.764-3.777l.537.038-.192,9.127H60.419v-.5a11.931,11.931,0,0,0,2.071-.211" transform="translate(-31.088 -82.651)" fill="#eff0ef"/>
            <path id="Path_800" data-name="Path 800" d="M121.075,177.654a30.96,30.96,0,0,0,1.8,3.509,15.215,15.215,0,0,0,2.071,2.742,8.57,8.57,0,0,0,2.416,1.783,6.886,6.886,0,0,0,5.311.191,5.577,5.577,0,0,0,1.764-1.131,4.429,4.429,0,0,0,1.054-1.572,4.908,4.908,0,0,0,.345-1.8,5.012,5.012,0,0,0-.441-2.186,4.961,4.961,0,0,0-1.3-1.649,9.131,9.131,0,0,0-2.205-1.323q-1.342-.594-3.106-1.208-1.458-.5-2.857-1.036a10.13,10.13,0,0,1-2.493-1.362,6.577,6.577,0,0,1-1.783-2.051,6.191,6.191,0,0,1-.69-3.069,8.224,8.224,0,0,1,.69-3.413,7.437,7.437,0,0,1,1.9-2.589,8.6,8.6,0,0,1,2.857-1.63,10.879,10.879,0,0,1,3.605-.575,12.361,12.361,0,0,1,3.222.4,14.654,14.654,0,0,1,2.531.9l1.381-1.535h.46v8.552h-.537a18.113,18.113,0,0,0-3.471-5.714,5.771,5.771,0,0,0-4.2-1.879,5.855,5.855,0,0,0-1.9.306,4.612,4.612,0,0,0-1.591.92,4.5,4.5,0,0,0-1.093,1.476,4.719,4.719,0,0,0-.4,2.014,4.507,4.507,0,0,0,.46,2.109,4.855,4.855,0,0,0,1.342,1.572,9.365,9.365,0,0,0,2.167,1.227q1.285.537,2.934,1.074,1.381.46,2.723,1a9.734,9.734,0,0,1,2.416,1.381,6.682,6.682,0,0,1,1.745,2.071,6.425,6.425,0,0,1,.671,3.107,10.346,10.346,0,0,1-.5,3.144,8,8,0,0,1-1.591,2.838,8.084,8.084,0,0,1-2.819,2.051,10.132,10.132,0,0,1-4.218.786,12.525,12.525,0,0,1-3.413-.5,13.317,13.317,0,0,1-3.029-1.227l-2.3,1.879h-.46v-9.587Z" transform="translate(-62.021 -81.838)" fill="#eff0ef"/>
            <path id="Path_801" data-name="Path 801" d="M168.4,186.655a3.673,3.673,0,0,0,1.323-.5,1.658,1.658,0,0,0,.652-.786,2.932,2.932,0,0,0,.173-1.036V163.625a2.927,2.927,0,0,0-.173-1.035,1.556,1.556,0,0,0-.652-.767,4.21,4.21,0,0,0-1.323-.5,11.511,11.511,0,0,0-2.148-.23v-.461h13.039v.461a11.506,11.506,0,0,0-2.148.23,4.21,4.21,0,0,0-1.323.5,1.559,1.559,0,0,0-.652.767,2.938,2.938,0,0,0-.172,1.035v20.709a2.943,2.943,0,0,0,.172,1.036,1.662,1.662,0,0,0,.652.786,3.673,3.673,0,0,0,1.323.5,12.939,12.939,0,0,0,2.148.211v.5H166.254v-.5a12.945,12.945,0,0,0,2.148-.211" transform="translate(-85.543 -82.651)" fill="#eff0ef"/>
            <path id="Path_802" data-name="Path 802" d="M207.827,186.18a13.1,13.1,0,0,1-4.449-2.665,12.815,12.815,0,0,1-3.087-4.372,14.784,14.784,0,0,1-1.151-6.021,13.766,13.766,0,0,1,1.17-5.733,14.2,14.2,0,0,1,3.107-4.449,13.994,13.994,0,0,1,9.683-3.892,15.481,15.481,0,0,1,3.93.441,14.867,14.867,0,0,1,3.011,1.132l1.725-1.8h.422v8.858h-.536a16.61,16.61,0,0,0-3.816-5.867,7.277,7.277,0,0,0-5.081-2.033,7.427,7.427,0,0,0-3.145.709,7.2,7.2,0,0,0-2.723,2.3,12.741,12.741,0,0,0-1.917,4.123,22.407,22.407,0,0,0-.729,6.135,21.37,21.37,0,0,0,.767,6.136,12.517,12.517,0,0,0,2.013,4.122,7.724,7.724,0,0,0,2.819,2.32,7.582,7.582,0,0,0,3.222.729,7.854,7.854,0,0,0,5.215-1.61v-7.249a2.367,2.367,0,0,0-.882-1.917,5.856,5.856,0,0,0-3.375-.805v-.5h11.62v.5a3.8,3.8,0,0,0-2.4.652,2.841,2.841,0,0,0-.595,2.071v7.057a15.717,15.717,0,0,1-4.544,1.879,20.612,20.612,0,0,1-5.043.652,15.389,15.389,0,0,1-5.235-.9" transform="translate(-102.465 -81.717)" fill="#eff0ef"/>
            <path id="Path_803" data-name="Path 803" d="M263.5,164.968v15.991a12.136,12.136,0,0,0,.211,2.436,4.1,4.1,0,0,0,.767,1.726,3.846,3.846,0,0,0,1.515,1.131,8.943,8.943,0,0,0,2.416.613v.5H257.9v-.5a8.858,8.858,0,0,0,2.243-.652,3.842,3.842,0,0,0,1.438-1.112,4.27,4.27,0,0,0,.767-1.706,11.167,11.167,0,0,0,.23-2.436V165.543a5.127,5.127,0,0,0-.268-1.669,3.665,3.665,0,0,0-.844-1.381,4.266,4.266,0,0,0-1.457-.958,6.625,6.625,0,0,0-2.109-.441v-.46h8.168l15.225,20.248h.038V167a9.648,9.648,0,0,0-.268-2.435,4.395,4.395,0,0,0-.863-1.726,4.131,4.131,0,0,0-1.591-1.131,9.522,9.522,0,0,0-2.416-.614v-.46h10.546v.46a8.55,8.55,0,0,0-2.224.652,3.548,3.548,0,0,0-1.381,1.112,4.217,4.217,0,0,0-.69,1.707,13.348,13.348,0,0,0-.192,2.435v20.938h-1.266l-17.449-22.971Z" transform="translate(-132.699 -82.651)" fill="#eff0ef"/>
            <path id="Path_804" data-name="Path 804" d="M325.313,186.655a3.443,3.443,0,0,0,1.266-.5,1.821,1.821,0,0,0,.652-.786,2.672,2.672,0,0,0,.192-1.036V163.625a2.15,2.15,0,0,0-.844-1.8,6.2,6.2,0,0,0-3.337-.729v-.461h22.243l.115,8.629-.537.076q-.843-2.032-1.63-3.547a10.006,10.006,0,0,0-1.764-2.492,6.379,6.379,0,0,0-2.2-1.457,8.113,8.113,0,0,0-2.953-.48h-4.6v11.774h2.071a8.123,8.123,0,0,0,2.109-.249,4.4,4.4,0,0,0,1.649-.844,4.92,4.92,0,0,0,1.247-1.61,12.207,12.207,0,0,0,.9-2.55h.5v11.237h-.5a11.723,11.723,0,0,0-.9-2.531,5.211,5.211,0,0,0-1.247-1.611,4.266,4.266,0,0,0-1.649-.863,8.1,8.1,0,0,0-2.109-.249h-2.071v12.77h4.526a10.683,10.683,0,0,0,3.451-.5,6.919,6.919,0,0,0,2.55-1.534,10.762,10.762,0,0,0,1.975-2.627,34.318,34.318,0,0,0,1.764-3.777l.537.038-.192,9.127H323.242v-.5a11.931,11.931,0,0,0,2.071-.211" transform="translate(-166.318 -82.651)" fill="#eff0ef"/>
            <path id="Path_805" data-name="Path 805" d="M388.235,186.174a6.09,6.09,0,0,0,3.221.69v.5H378.763v-.5a11.944,11.944,0,0,0,2.071-.21,3.441,3.441,0,0,0,1.265-.5,1.815,1.815,0,0,0,.652-.786,2.672,2.672,0,0,0,.192-1.035V163.625a2.151,2.151,0,0,0-.844-1.8,6.2,6.2,0,0,0-3.336-.729v-.46h12.08a21.8,21.8,0,0,1,5.024.5,10.334,10.334,0,0,1,3.375,1.381,5.487,5.487,0,0,1,1.9,2.071,5.592,5.592,0,0,1,.595,2.531,5.777,5.777,0,0,1-1.86,4.294q-1.861,1.8-6.27,2.455v.115a11.652,11.652,0,0,1,3.489.576A5.757,5.757,0,0,1,399.3,175.9a5.5,5.5,0,0,1,1.247,2.033,13.007,13.007,0,0,1,.613,2.646l.268,2.186a11.669,11.669,0,0,0,.461,2.033,2.863,2.863,0,0,0,.728,1.189,2.4,2.4,0,0,0,1.247.556,12.3,12.3,0,0,0,2.013.134v.46a15.514,15.514,0,0,1-1.994.326q-1,.1-1.955.1a9.646,9.646,0,0,1-2.531-.268,3.324,3.324,0,0,1-1.534-.863,3.406,3.406,0,0,1-.824-1.515,15.661,15.661,0,0,1-.4-2.224l-.384-3.528a10.9,10.9,0,0,0-.479-2.4,3.364,3.364,0,0,0-.978-1.5,3.711,3.711,0,0,0-1.726-.767,14.543,14.543,0,0,0-2.722-.211H387.43v10.048a2.165,2.165,0,0,0,.805,1.84m5.542-13.019a3.967,3.967,0,0,0,2.838-3.145,13.046,13.046,0,0,0,.249-2.7,8.647,8.647,0,0,0-.326-2.473,4.32,4.32,0,0,0-1.092-1.86,5.089,5.089,0,0,0-2.052-1.189,10.554,10.554,0,0,0-3.241-.422H387.43v12.195h3.221a10.093,10.093,0,0,0,3.126-.4" transform="translate(-194.886 -82.651)" fill="#eff0ef"/>
            <path id="Path_806" data-name="Path 806" d="M469.271,186.156a2.032,2.032,0,0,0,1-1.821V161.363h-1.5a5.534,5.534,0,0,0-4.008,1.918,22.183,22.183,0,0,0-3.7,5.713l-.537-.038.23-8.322h23.508l.23,8.322-.537.038a23.351,23.351,0,0,0-3.682-5.637,5.542,5.542,0,0,0-4.065-1.994h-1.5v22.971a2.032,2.032,0,0,0,1,1.821,7.571,7.571,0,0,0,3.567.709v.5H465.7v-.5a7.572,7.572,0,0,0,3.567-.709" transform="translate(-236.956 -82.651)" fill="#eff0ef"/>
            <path id="Path_807" data-name="Path 807" d="M522.995,185.888a7.541,7.541,0,0,1-2.7-6.309V163.626a2.133,2.133,0,0,0-.863-1.8,6.218,6.218,0,0,0-3.317-.729v-.461h12.541v.461a10.555,10.555,0,0,0-1.975.211,3.012,3.012,0,0,0-1.169.5,1.655,1.655,0,0,0-.575.767,3.217,3.217,0,0,0-.153,1.055v15.493a9.43,9.43,0,0,0,.614,3.643,6.031,6.031,0,0,0,1.669,2.339,6.192,6.192,0,0,0,2.473,1.246,12.126,12.126,0,0,0,3.029.365,8.383,8.383,0,0,0,2.742-.441,5.567,5.567,0,0,0,2.167-1.323,7,7,0,0,0,1.572-2.511,10.471,10.471,0,0,0,.575-3.7V167a10.353,10.353,0,0,0-.249-2.435,4.08,4.08,0,0,0-.863-1.726,4.332,4.332,0,0,0-1.591-1.131,9.252,9.252,0,0,0-2.435-.613v-.461h10.584v.461a8.534,8.534,0,0,0-2.224.652,3.55,3.55,0,0,0-1.381,1.112,4.207,4.207,0,0,0-.69,1.707,13.35,13.35,0,0,0-.192,2.435v12.042a11.124,11.124,0,0,1-.575,3.681,7.13,7.13,0,0,1-1.783,2.819,8.268,8.268,0,0,1-3.068,1.821,13.421,13.421,0,0,1-4.43.652q-5.023,0-7.727-2.128" transform="translate(-265.556 -82.651)" fill="#eff0ef"/>
            <path id="Path_808" data-name="Path 808" d="M591.264,186.174a6.094,6.094,0,0,0,3.222.69v.5H581.792v-.5a11.934,11.934,0,0,0,2.071-.21,3.444,3.444,0,0,0,1.266-.5,1.816,1.816,0,0,0,.652-.786,2.672,2.672,0,0,0,.192-1.035V163.625a2.151,2.151,0,0,0-.844-1.8,6.206,6.206,0,0,0-3.336-.729v-.46h12.08a21.793,21.793,0,0,1,5.024.5,10.331,10.331,0,0,1,3.375,1.381,5.483,5.483,0,0,1,1.9,2.071,5.586,5.586,0,0,1,.595,2.531,5.775,5.775,0,0,1-1.86,4.294q-1.86,1.8-6.27,2.455v.115a11.654,11.654,0,0,1,3.49.576,5.752,5.752,0,0,1,2.2,1.342,5.5,5.5,0,0,1,1.247,2.033,12.994,12.994,0,0,1,.614,2.646l.268,2.186a11.609,11.609,0,0,0,.461,2.033,2.852,2.852,0,0,0,.728,1.189,2.394,2.394,0,0,0,1.247.556,12.3,12.3,0,0,0,2.013.134v.46a15.519,15.519,0,0,1-1.994.326q-1,.1-1.955.1a9.65,9.65,0,0,1-2.531-.268,3.328,3.328,0,0,1-1.534-.863,3.41,3.41,0,0,1-.824-1.515,15.667,15.667,0,0,1-.4-2.224l-.384-3.528a10.934,10.934,0,0,0-.479-2.4,3.362,3.362,0,0,0-.978-1.5,3.709,3.709,0,0,0-1.725-.767,14.549,14.549,0,0,0-2.723-.211h-2.915v10.048a2.167,2.167,0,0,0,.805,1.84m5.542-13.019a3.967,3.967,0,0,0,2.838-3.145,13.08,13.08,0,0,0,.249-2.7,8.646,8.646,0,0,0-.326-2.473,4.328,4.328,0,0,0-1.092-1.86,5.093,5.093,0,0,0-2.052-1.189,10.549,10.549,0,0,0-3.24-.422h-2.723v12.195h3.222a10.087,10.087,0,0,0,3.125-.4" transform="translate(-299.351 -82.651)" fill="#eff0ef"/>
            <path id="Path_809" data-name="Path 809" d="M661.245,164.316a2.324,2.324,0,0,0,.364-1.477,1.571,1.571,0,0,0-.786-1.112,5.517,5.517,0,0,0-2.186-.633v-.46h10.546v.46a11.659,11.659,0,0,0-2.224.633,10.8,10.8,0,0,0-2.013,1.093,21.9,21.9,0,0,0-2.167,1.707q-1.151,1.016-2.608,2.511l-3.912,3.835,8.169,11.352q.958,1.3,1.63,2.128a10.039,10.039,0,0,0,1.285,1.342,4.264,4.264,0,0,0,1.3.767,9.048,9.048,0,0,0,1.726.4v.5H658.407v-.5q2.148-.191,2.512-.939t-.863-2.512l-6.711-9.511-2.493,2.455v8.015a3.849,3.849,0,0,0,.135,1.073,1.367,1.367,0,0,0,.537.748,3.25,3.25,0,0,0,1.131.461,9.841,9.841,0,0,0,1.879.21v.5H642.185v-.5a11.934,11.934,0,0,0,2.071-.21,3.693,3.693,0,0,0,1.266-.48,1.7,1.7,0,0,0,.652-.767,2.674,2.674,0,0,0,.192-1.035V163.625a2.672,2.672,0,0,0-.192-1.036,1.705,1.705,0,0,0-.652-.767,3.951,3.951,0,0,0-1.266-.5,10.606,10.606,0,0,0-2.071-.23v-.46h12.579v.46a10.951,10.951,0,0,0-1.994.211,3.231,3.231,0,0,0-1.189.479,1.537,1.537,0,0,0-.575.767,3.407,3.407,0,0,0-.153,1.074v11.62L659.941,166a8.855,8.855,0,0,0,1.3-1.687" transform="translate(-330.425 -82.651)" fill="#eff0ef"/>
            <path id="Path_810" data-name="Path 810" d="M709.55,186.655a3.443,3.443,0,0,0,1.266-.5,1.821,1.821,0,0,0,.652-.786,2.672,2.672,0,0,0,.192-1.036V163.625a2.15,2.15,0,0,0-.844-1.8,6.2,6.2,0,0,0-3.337-.729v-.461h22.243l.115,8.629-.537.076q-.843-2.032-1.63-3.547a10.006,10.006,0,0,0-1.764-2.492,6.379,6.379,0,0,0-2.2-1.457,8.113,8.113,0,0,0-2.953-.48h-4.6v11.774h2.071a8.123,8.123,0,0,0,2.109-.249,4.4,4.4,0,0,0,1.649-.844,4.918,4.918,0,0,0,1.247-1.61,12.207,12.207,0,0,0,.9-2.55h.5v11.237h-.5a11.722,11.722,0,0,0-.9-2.531,5.209,5.209,0,0,0-1.247-1.611,4.265,4.265,0,0,0-1.649-.863,8.1,8.1,0,0,0-2.109-.249h-2.071v12.77h4.526a10.684,10.684,0,0,0,3.451-.5,6.919,6.919,0,0,0,2.55-1.534,10.763,10.763,0,0,0,1.975-2.627,34.306,34.306,0,0,0,1.764-3.777l.537.038-.192,9.127H707.479v-.5a11.931,11.931,0,0,0,2.071-.211" transform="translate(-364.021 -82.651)" fill="#eff0ef"/>
            <path id="Path_811" data-name="Path 811" d="M783.392,163.913a2.066,2.066,0,0,0,.076-1.342,1.631,1.631,0,0,0-.92-.9,8.246,8.246,0,0,0-2.033-.575v-.46h8.859v.46a11.2,11.2,0,0,0-1.726.48,5.071,5.071,0,0,0-1.476.882,8.97,8.97,0,0,0-1.42,1.553,26.205,26.205,0,0,0-1.552,2.416l-5.254,9.012v8.9a2.932,2.932,0,0,0,.172,1.035,1.662,1.662,0,0,0,.652.786,3.683,3.683,0,0,0,1.323.5,12.9,12.9,0,0,0,2.147.21v.5H769.2v-.5a12.878,12.878,0,0,0,2.147-.21,3.673,3.673,0,0,0,1.323-.5,1.655,1.655,0,0,0,.652-.786,2.942,2.942,0,0,0,.172-1.035V176.2l-6.749-11.926a10.7,10.7,0,0,0-.844-1.266,4.679,4.679,0,0,0-.92-.9,4.521,4.521,0,0,0-1.132-.595,12.46,12.46,0,0,0-1.476-.422v-.46h12.348v.46a9.325,9.325,0,0,0-2.205.326,1.974,1.974,0,0,0-1.074.671,1.211,1.211,0,0,0-.153,1,5.445,5.445,0,0,0,.556,1.342l5.6,10.163,4.985-8.744a10.656,10.656,0,0,0,.959-1.937" transform="translate(-392.268 -82.651)" fill="#eff0ef"/>
            <path id="Path_812" data-name="Path 812" d="M95.876,253.636l-1.363,3.093H93.027L98.514,244.5h1.45l5.47,12.232h-1.52l-1.363-3.093Zm3.32-7.549-2.726,6.2h5.487Z" transform="translate(-47.865 -125.802)" fill="#eff0ef"/>
            <path id="Path_813" data-name="Path 813" d="M128.092,252.831c-.262.017-.542.035-.821.035h-3.25v3.862h-1.4V244.5h4.648c3.058,0,4.823,1.5,4.823,4.107a3.83,3.83,0,0,1-2.743,3.967l2.866,4.159h-1.59Zm-.821-1.31c2.22,0,3.477-.979,3.477-2.883,0-1.853-1.258-2.8-3.477-2.8h-3.25v5.679Z" transform="translate(-63.093 -125.801)" fill="#eff0ef"/>
            <path id="Path_814" data-name="Path 814" d="M157.1,246.207l-.839,1.066a5.139,5.139,0,0,0-3.617-1.538,4.826,4.826,0,1,0,0,9.646,5.333,5.333,0,0,0,3.617-1.468l.856.961a6.757,6.757,0,0,1-4.543,1.887,6.171,6.171,0,1,1,.052-12.337,6.612,6.612,0,0,1,4.474,1.782" transform="translate(-75.25 -125.765)" fill="#eff0ef"/>
            <path id="Path_815" data-name="Path 815" d="M182.452,256.729v-5.382h-7.374v5.382h-1.4V244.5h1.4v5.522h7.374V244.5h1.4v12.232Z" transform="translate(-89.364 -125.801)" fill="#eff0ef"/>
            <rect id="Rectangle_95" data-name="Rectangle 95" width="1.398" height="12.232" transform="translate(98.161 118.695)" fill="#eff0ef"/>
            <path id="Path_816" data-name="Path 816" d="M214.544,245.843v10.887h-1.4V245.843h-3.984V244.5h9.384v1.346Z" transform="translate(-107.621 -125.802)" fill="#eff0ef"/>
            <path id="Path_817" data-name="Path 817" d="M233.992,245.843v4.019h6.168v1.346h-6.168V255.4h7.13v1.328h-8.528V244.5h8.3v1.346Z" transform="translate(-119.677 -125.802)" fill="#eff0ef"/>
            <path id="Path_818" data-name="Path 818" d="M263.757,246.207l-.839,1.066a5.139,5.139,0,0,0-3.617-1.538,4.826,4.826,0,1,0,0,9.646,5.333,5.333,0,0,0,3.617-1.468l.856.961a6.757,6.757,0,0,1-4.543,1.887,6.171,6.171,0,1,1,.052-12.337,6.612,6.612,0,0,1,4.474,1.782" transform="translate(-130.128 -125.765)" fill="#eff0ef"/>
            <path id="Path_819" data-name="Path 819" d="M283.512,245.843v10.887h-1.4V245.843H278.13V244.5h9.384v1.346Z" transform="translate(-143.107 -125.802)" fill="#eff0ef"/>
            <path id="Path_820" data-name="Path 820" d="M311.564,251.7c0,3.18-1.922,5.1-5.12,5.1-3.216,0-5.155-1.922-5.155-5.1v-7.2h1.4v7.2a3.74,3.74,0,1,0,7.48,0v-7.2h1.4Z" transform="translate(-155.023 -125.802)" fill="#eff0ef"/>
            <path id="Path_821" data-name="Path 821" d="M335.136,252.831c-.262.017-.542.035-.821.035h-3.25v3.862h-1.4V244.5h4.648c3.058,0,4.823,1.5,4.823,4.107a3.83,3.83,0,0,1-2.743,3.967l2.866,4.159h-1.59Zm-.821-1.31c2.22,0,3.477-.979,3.477-2.883,0-1.853-1.258-2.8-3.477-2.8h-3.25v5.679Z" transform="translate(-169.624 -125.801)" fill="#eff0ef"/>
            <path id="Path_822" data-name="Path 822" d="M356.923,245.843v4.019h6.168v1.346h-6.168V255.4h7.13v1.328h-8.528V244.5h8.3v1.346Z" transform="translate(-182.929 -125.802)" fill="#eff0ef"/>
            <path id="Path_823" data-name="Path 823" d="M397.818,251.714a2.08,2.08,0,0,1,1.468-.769,1.323,1.323,0,0,1,1,.358,1.279,1.279,0,0,1,.34.918,1.1,1.1,0,0,1-.3.777,1.015,1.015,0,0,1-.786.323.99.99,0,0,1-.717-.288.927.927,0,0,1-.3-.69.714.714,0,0,1,.1-.4l-.052-.052a4.57,4.57,0,0,0-1.887,2.219,12.58,12.58,0,0,0,.716,1.145,5.222,5.222,0,0,0,.638.751,1.977,1.977,0,0,0,.612.41,1.657,1.657,0,0,0,.62.122,1.353,1.353,0,0,0,.507-.1,3.2,3.2,0,0,0,.664-.4l.14.157a6.108,6.108,0,0,1-1.31,1.084,2.478,2.478,0,0,1-1.258.367,2.441,2.441,0,0,1-.778-.114,1.9,1.9,0,0,1-.629-.358,3.481,3.481,0,0,1-.559-.62,8.656,8.656,0,0,1-.55-.883,5.21,5.21,0,0,1-1.494,1.434,3.823,3.823,0,0,1-2.071.542,3.914,3.914,0,0,1-1.442-.245,3.071,3.071,0,0,1-1.04-.656,2.756,2.756,0,0,1-.638-.961,3.133,3.133,0,0,1-.218-1.162,2.683,2.683,0,0,1,.856-2.045,6.389,6.389,0,0,1,2.359-1.31,8.435,8.435,0,0,1-1.031-1.293,2.539,2.539,0,0,1-.384-1.381,3.036,3.036,0,0,1,.218-1.162,2.531,2.531,0,0,1,.638-.918,3.016,3.016,0,0,1,1.022-.6,3.994,3.994,0,0,1,1.371-.218,3.663,3.663,0,0,1,1.2.184,2.826,2.826,0,0,1,.9.489,2.038,2.038,0,0,1,.752,1.6,2.162,2.162,0,0,1-.629,1.547,7.062,7.062,0,0,1-2.01,1.319,15.267,15.267,0,0,1,1.477,1.468,9.434,9.434,0,0,1,1.127,1.555,7.555,7.555,0,0,1,1.346-2.132m-6.929.926a3.2,3.2,0,0,0-.376,1.625A2.252,2.252,0,0,0,391.2,256a2.486,2.486,0,0,0,1.756.638,2.6,2.6,0,0,0,1.293-.315,3.993,3.993,0,0,0,1.084-.944,9.624,9.624,0,0,0-.638-.987q-.376-.516-.813-1.022t-.9-1a12.236,12.236,0,0,0-.935-.891,3.487,3.487,0,0,0-1.162,1.153m3.355-2.674a2.553,2.553,0,0,0,.428-.629,2.879,2.879,0,0,0,.227-.7,4.412,4.412,0,0,0,.07-.821,2.224,2.224,0,0,0-.376-1.381,1.314,1.314,0,0,0-1.11-.489,1.408,1.408,0,0,0-1.11.489,1.868,1.868,0,0,0-.428,1.275,2.6,2.6,0,0,0,.419,1.39,9.03,9.03,0,0,0,1.206,1.476,5.482,5.482,0,0,0,.673-.612" transform="translate(-199.952 -126.413)" fill="#eff0ef"/>
            <path id="Path_824" data-name="Path 824" d="M438.231,246.207l-.839,1.066a5.139,5.139,0,0,0-3.617-1.538,4.826,4.826,0,1,0,0,9.646,5.334,5.334,0,0,0,3.617-1.468l.856.961a6.757,6.757,0,0,1-4.544,1.887,6.171,6.171,0,1,1,.052-12.337,6.612,6.612,0,0,1,4.474,1.782" transform="translate(-219.9 -125.765)" fill="#eff0ef"/>
            <path id="Path_825" data-name="Path 825" d="M465.136,250.576a6.41,6.41,0,1,1-6.4-6.151,6.256,6.256,0,0,1,6.4,6.151m-11.393,0a4.983,4.983,0,1,0,5-4.823,4.931,4.931,0,0,0-5,4.823" transform="translate(-232.737 -125.765)" fill="#eff0ef"/>
            <path id="Path_826" data-name="Path 826" d="M493,256.729l-7.339-9.82v9.82h-1.4V244.5h1.451l7.339,9.838V244.5h1.381v12.232Z" transform="translate(-249.17 -125.801)" fill="#eff0ef"/>
            <path id="Path_827" data-name="Path 827" d="M519.173,245.525l-.594,1.31a6.317,6.317,0,0,0-3.372-1.031c-1.573,0-2.6.595-2.6,1.625,0,3.145,6.885,1.5,6.867,5.942,0,2.044-1.8,3.355-4.421,3.355a6.983,6.983,0,0,1-4.683-1.87L511,253.6a6.086,6.086,0,0,0,4.072,1.73c1.765,0,2.866-.716,2.866-1.887.017-3.215-6.867-1.5-6.867-5.889,0-1.922,1.7-3.163,4.229-3.163a7.234,7.234,0,0,1,3.879,1.136" transform="translate(-262.6 -125.746)" fill="#eff0ef"/>
            <path id="Path_828" data-name="Path 828" d="M537.474,245.843v10.887h-1.4V245.843h-3.984V244.5h9.384v1.346Z" transform="translate(-273.779 -125.802)" fill="#eff0ef"/>
            <path id="Path_829" data-name="Path 829" d="M560.994,252.831c-.262.017-.542.035-.821.035h-3.25v3.862h-1.4V244.5h4.648c3.058,0,4.823,1.5,4.823,4.107a3.83,3.83,0,0,1-2.743,3.967l2.866,4.159h-1.59Zm-.821-1.31c2.22,0,3.477-.979,3.477-2.883,0-1.853-1.258-2.8-3.477-2.8h-3.25v5.679Z" transform="translate(-285.835 -125.801)" fill="#eff0ef"/>
            <path id="Path_830" data-name="Path 830" d="M591.129,251.7c0,3.18-1.922,5.1-5.12,5.1-3.216,0-5.155-1.922-5.155-5.1v-7.2h1.4v7.2a3.74,3.74,0,1,0,7.48,0v-7.2h1.4Z" transform="translate(-298.868 -125.802)" fill="#eff0ef"/>
            <path id="Path_831" data-name="Path 831" d="M617.956,246.207l-.839,1.066a5.139,5.139,0,0,0-3.617-1.538,4.826,4.826,0,1,0,0,9.646,5.332,5.332,0,0,0,3.617-1.468l.856.961a6.757,6.757,0,0,1-4.543,1.887,6.171,6.171,0,1,1,.052-12.337,6.615,6.615,0,0,1,4.474,1.782" transform="translate(-312.375 -125.765)" fill="#eff0ef"/>
            <path id="Path_832" data-name="Path 832" d="M637.712,245.843v10.887h-1.4V245.843H632.33V244.5h9.384v1.346Z" transform="translate(-325.354 -125.802)" fill="#eff0ef"/>
            <rect id="Rectangle_96" data-name="Rectangle 96" width="1.398" height="12.232" transform="translate(318.351 118.695)" fill="#eff0ef"/>
            <path id="Path_833" data-name="Path 833" d="M676.987,250.576a6.41,6.41,0,1,1-6.4-6.151,6.256,6.256,0,0,1,6.4,6.151m-11.393,0a4.983,4.983,0,1,0,5-4.823,4.931,4.931,0,0,0-5,4.823" transform="translate(-341.741 -125.765)" fill="#eff0ef"/>
            <path id="Path_834" data-name="Path 834" d="M704.854,256.729l-7.339-9.82v9.82h-1.4V244.5h1.451l7.339,9.838V244.5h1.38v12.232Z" transform="translate(-358.175 -125.801)" fill="#eff0ef"/>
            <path id="Path_835" data-name="Path 835" d="M404.3,12.81l-.069-11.143L404.225,0,402.6.241,254.177,22.189l-.244.036,0,.242.132,14.858h.3l.13-14.612L401.349,3.308l-.059,9.5-.031,11.143c.032,7.014.025,14.027.125,21.04-9.467,1.078-18.942,2.075-28.4,3.264-9.886,1.182-19.767,2.418-29.636,3.778l.03.3c9.942-.62,19.872-1.366,29.8-2.165,9.931-.738,19.84-1.689,29.76-2.536l1.238-.105.02-1.285c.12-7.429.106-14.858.14-22.287Z" transform="translate(-130.657 -0.001)" fill="#eff0ef"/>
          </g>
        </g>
      </g>
      <g id="Group_162" data-name="Group 162" transform="translate(972.955 5346.303)">
        <g id="Group_161" data-name="Group 161" clip-path="url(#clip-path-5)">
          <path id="Path_836" data-name="Path 836" d="M9.447,32.787H21.069c12.226,0,19.616-6.182,19.616-16.392S33.3,0,21.069,0H2.727V47.03H9.445V32.787Zm0-26.941H20.868c8.6,0,13.1,3.83,13.1,10.547s-4.5,10.547-13.1,10.547H9.447Z" transform="translate(-1.204 0)" fill="#eff0ef"/>
          <path id="Path_837" data-name="Path 837" d="M88.162,38.051c0-7.794,4.3-12.026,11.22-12.026a11.412,11.412,0,0,1,1.478.067V19.844c-6.248,0-10.681,2.15-12.966,6.315V20.181H81.712V55.787h6.45Z" transform="translate(-36.07 -8.76)" fill="#eff0ef"/>
          <path id="Path_838" data-name="Path 838" d="M137.935,56.191c10.681,0,18.475-7.591,18.475-18.207s-7.794-18.141-18.475-18.141-18.542,7.524-18.542,18.141,7.861,18.207,18.542,18.207m0-30.7c6.854,0,11.959,4.9,11.959,12.5s-5.105,12.564-11.959,12.564-12.026-4.971-12.026-12.564,5.172-12.5,12.026-12.5" transform="translate(-52.704 -8.759)" fill="#eff0ef"/>
          <path id="Path_839" data-name="Path 839" d="M288.885,19.847c-10.28,0-17.871,7.591-17.871,18.14s7.66,18.208,19.148,18.208c5.911,0,10.815-2.016,14.041-5.778l-3.56-4.165a13.292,13.292,0,0,1-10.279,4.3c-7.055,0-12.093-4.165-12.9-10.413h28.889c.067-.6.134-1.411.134-1.947,0-10.952-7.323-18.342-17.6-18.342ZM277.464,35.5a11.492,11.492,0,0,1,22.841,0Z" transform="translate(-119.635 -8.761)" fill="#eff0ef"/>
          <path id="Path_840" data-name="Path 840" d="M352.7,38.051c0-7.794,4.3-12.026,11.22-12.026a11.412,11.412,0,0,1,1.478.067V19.844c-6.248,0-10.681,2.15-12.966,6.315V20.181h-6.182V55.787h6.45Z" transform="translate(-152.845 -8.76)" fill="#eff0ef"/>
          <path id="Path_841" data-name="Path 841" d="M391.875,39.147c0,7.189,4.1,11.153,11.287,11.153a12.171,12.171,0,0,0,7.794-2.486l-2.016-4.636a8.129,8.129,0,0,1-5.038,1.679c-3.56,0-5.576-2.15-5.576-5.978V19.6h10.212V14.289H398.324V6.5h-6.45v7.794h-6.048V19.6h6.048V39.147Z" transform="translate(-170.317 -2.868)" fill="#eff0ef"/>
          <path id="Path_842" data-name="Path 842" d="M445.918,58.475c-1.747,4.1-3.7,5.509-6.785,5.509a9.108,9.108,0,0,1-6.382-2.62L430,66.2a13.366,13.366,0,0,0,9.136,3.292c5.443,0,9.54-2.352,12.7-9.875L469.1,20.45h-6.316L450.489,48.935,438.06,20.45h-6.717l15.721,35.539-1.141,2.486Z" transform="translate(-189.815 -9.027)" fill="#eff0ef"/>
          <path id="Path_843" data-name="Path 843" d="M0,112.994H14.042v37.422H26V112.994H40.175V103.32H0Z" transform="translate(0 -45.609)" fill="#eff0ef"/>
          <path id="Path_844" data-name="Path 844" d="M112.49,130.716c0,6.383-3.83,10.279-9.473,10.279s-9.808-3.9-9.808-10.279V103.44H81.249v27.276c0,12.428,8.466,20.289,21.7,20.289s21.432-7.861,21.432-20.289V103.44H112.49Z" transform="translate(-35.866 -45.662)" fill="#eff0ef"/>
          <path id="Path_845" data-name="Path 845" d="M208.484,82.929c0-9.894-6.349-15.714-17.518-16.334V50.413a15.205,15.205,0,0,0,12.428,5.777c10.414,0,18-7.256,18-18.207s-7.591-18.141-18-18.141c-5.241,0-9.808,2.016-12.7,5.978V20.178h-6.181V66.535H167.9v47.029h11.959V100.33h9.406l6.988,13.234h13.571L199.95,98.046C205.459,95.292,208.484,90.118,208.484,82.929Zm-5.627-57.443c6.854,0,12.026,4.971,12.026,12.5s-5.172,12.564-12.025,12.564S190.9,45.576,190.9,37.984s5.172-12.5,11.959-12.5ZM188.934,90.924h-9.069V75.942h9.069c5.172,0,8.2,2.486,8.2,7.39s-3.024,7.593-8.2,7.593" transform="translate(-74.118 -8.759)" fill="#eff0ef"/>
          <path id="Path_846" data-name="Path 846" d="M296,103.44H282.162l-18,20.356V103.44H252.2v47.029h11.958V138.912l6.247-6.918,12.43,18.475h14.31l-18.611-27.546Z" transform="translate(-111.329 -45.662)" fill="#eff0ef"/>
          <path id="Path_847" data-name="Path 847" d="M350.273,131.59h22.439v-9.406H350.273v-9.337h24.858V103.44H338.314v47.029H375.87v-9.406h-25.6Z" transform="translate(-149.343 -45.662)" fill="#eff0ef"/>
          <path id="Path_848" data-name="Path 848" d="M431.737,123.932,420.383,103.44H408.424l17.4,32.181v14.848h11.892V135.286l17.064-31.846H442.823Z" transform="translate(-180.292 -45.662)" fill="#eff0ef"/>
          <path id="Path_849" data-name="Path 849" d="M149.8,239.661h4.551v20.652h12.811v3.85H149.8Z" transform="translate(-66.125 -105.794)" fill="#eff0ef"/>
          <path id="Path_850" data-name="Path 850" d="M205.71,260.348v3.816H187.333v-24.5H205.22v3.816H191.883v6.371h11.832v3.745H191.883v6.756Z" transform="translate(-82.695 -105.794)" fill="#eff0ef"/>
          <path id="Path_851" data-name="Path 851" d="M244.481,251.355h4.305v9.766a15.511,15.511,0,0,1-9.591,3.116c-7.6,0-13.2-5.286-13.2-12.6s5.6-12.6,13.267-12.6c4.1,0,7.526,1.365,9.836,3.99l-2.871,2.8a9.092,9.092,0,0,0-6.756-2.8c-5.215,0-8.891,3.536-8.891,8.611,0,4.97,3.675,8.611,8.856,8.611a9.9,9.9,0,0,0,5.04-1.26Z" transform="translate(-99.763 -105.518)" fill="#eff0ef"/>
          <path id="Path_852" data-name="Path 852" d="M290.663,258.493H278.412L276,264.164h-4.69l11.026-24.5h4.48l11.062,24.5h-4.761Zm-1.505-3.57-4.62-10.711-4.585,10.711Z" transform="translate(-119.763 -105.794)" fill="#eff0ef"/>
          <path id="Path_853" data-name="Path 853" d="M324.446,239.661H329v20.652h12.811v3.85H324.446Z" transform="translate(-143.221 -105.794)" fill="#eff0ef"/>
        </g>
      </g>
      <g id="Group_165" data-name="Group 165" transform="translate(600.075 5346.303)">
        <rect id="Rectangle_99" data-name="Rectangle 99" width="7.952" height="47.169" transform="translate(50.535 3.638)" fill="#eff0ef"/>
        <g id="Group_164" data-name="Group 164" transform="translate(0 0)">
          <g id="Group_163" data-name="Group 163" clip-path="url(#clip-path-6)">
            <path id="Path_854" data-name="Path 854" d="M110.633,30.13v22.3h-7.749V32.286c0-5.391-3.234-8.693-8.625-8.693-5.93.068-9.635,4.178-10.175,9.77v19.07H76.335V16.585h7.749v6.873c2.561-4.986,7.142-7.142,13.207-7.142,8.356,0,13.342,5.256,13.342,13.814" transform="translate(-7.608 -1.626)" fill="#eff0ef"/>
            <path id="Path_855" data-name="Path 855" d="M146.851,19.88l-2.831,5.727a21.075,21.075,0,0,0-10.309-3.166c-3.032,0-5.256,1.01-5.256,3.572,0,6.6,19.069,3.031,19,16.038,0,7.345-6.537,10.646-13.746,10.646-5.256,0-10.849-1.752-14.421-4.987l2.763-5.525a19.53,19.53,0,0,0,11.994,4.448c3.3,0,5.862-1.145,5.862-3.841,0-7.345-18.867-3.235-18.8-16.173,0-7.277,6.334-10.377,13.207-10.377a22.653,22.653,0,0,1,12.533,3.639" transform="translate(-11.89 -1.619)" fill="#eff0ef"/>
            <path id="Path_856" data-name="Path 856" d="M165.664,4.716a4.517,4.517,0,1,1-9.03,0,4.519,4.519,0,1,1,9.03,0m-8.356,10.243h7.682V50.807h-7.682Z" transform="translate(-15.612 0)" fill="#eff0ef"/>
            <path id="Path_857" data-name="Path 857" d="M210.558,50.9h-7.75V44.765c-2.561,4.178-6.873,6.469-12.6,6.469-10.31,0-17.184-7.48-17.184-18.4,0-10.782,6.942-18.127,17.049-18.127,5.8,0,10.108,2.359,12.736,6.537V.9h7.75Zm-7.75-17.79c0-6.941-4.514-11.793-10.984-11.793s-10.983,4.919-11.051,11.793c.068,6.807,4.514,11.657,11.051,11.657,6.47,0,10.984-4.851,10.984-11.657" transform="translate(-17.245 -0.089)" fill="#eff0ef"/>
            <path id="Path_858" data-name="Path 858" d="M257.1,37.475H230.008a10.914,10.914,0,0,0,11.118,8.962,13.937,13.937,0,0,0,10.107-4.178l4.111,4.38c-3.5,3.84-8.625,6.065-14.824,6.065-11.052,0-18.329-7.345-18.329-18.126,0-10.85,7.479-18.195,18.127-18.261,12.6,0,17.722,8.221,16.778,21.159m-6.738-5.66c-.269-5.8-4.111-9.3-9.973-9.3-5.66,0-9.636,3.572-10.511,9.3Z" transform="translate(-22.146 -1.626)" fill="#eff0ef"/>
            <path id="Path_859" data-name="Path 859" d="M26.079,76.035v37.533h-12V76.035H0v-9.7H40.3v9.7Z" transform="translate(0 -6.611)" fill="#eff0ef"/>
            <path id="Path_860" data-name="Path 860" d="M92.8,93.764c0,12.466-8.289,20.35-21.5,20.35-13.275,0-21.766-7.884-21.766-20.35V66.406h12V93.764c0,6.4,4.111,10.31,9.838,10.31,5.66,0,9.5-3.908,9.5-10.31V66.406H92.8Z" transform="translate(-4.938 -6.619)" fill="#eff0ef"/>
            <path id="Path_861" data-name="Path 861" d="M128.6,100.3h-9.435v13.275H107.168V66.407h21.091c12.466,0,19.609,5.93,19.609,16.441,0,7.211-3.032,12.4-8.559,15.162l9.905,15.566H135.6Zm-.338-9.434c5.189,0,8.221-2.628,8.221-7.614,0-4.919-3.032-7.412-8.221-7.412h-9.1V90.867Z" transform="translate(-10.681 -6.619)" fill="#eff0ef"/>
            <path id="Path_862" data-name="Path 862" d="M179.611,95.045l-6.266,6.941v11.59h-12V66.406h12V86.824L191.4,66.406h13.881l-17.52,19.542,18.666,27.628H192.077Z" transform="translate(-16.082 -6.619)" fill="#eff0ef"/>
            <path id="Path_863" data-name="Path 863" d="M229.248,75.84v9.366h22.507V94.64H229.248v9.5h25.674v9.435H217.254V66.407h36.927V75.84Z" transform="translate(-21.654 -6.619)" fill="#eff0ef"/>
            <path id="Path_864" data-name="Path 864" d="M291.46,113.575H279.534V98.683L262.081,66.406h12l11.387,20.553,11.118-20.553h12L291.46,98.346Z" transform="translate(-26.121 -6.619)" fill="#eff0ef"/>
          </g>
        </g>
      </g>
      <g id="Group_166" data-name="Group 166" transform="translate(1366.552 5372.333)" clip-path="url(#clip-path-7)">
        <path id="Path_865" data-name="Path 865" d="M77.989,32.984a4.939,4.939,0,0,0,1.506-.438,1.537,1.537,0,0,0,.753-.753,2.793,2.793,0,0,0,.194-1.093V3.158a2.791,2.791,0,0,0-.194-1.092,1.539,1.539,0,0,0-.753-.754A5.38,5.38,0,0,0,77.989.85a17.37,17.37,0,0,0-2.4-.219V0H91.274A31.649,31.649,0,0,1,98.56.7a13.262,13.262,0,0,1,4.664,1.968A7.023,7.023,0,0,1,105.7,5.708a10.318,10.318,0,0,1,.729,3.959,9.4,9.4,0,0,1-.777,3.813,7.786,7.786,0,0,1-2.575,3.109,13.531,13.531,0,0,1-4.712,2.089,29.2,29.2,0,0,1-7.189.753H88.6V30.7a3.342,3.342,0,0,0,.17,1.142,1.439,1.439,0,0,0,.7.753,5.09,5.09,0,0,0,1.555.462,20.831,20.831,0,0,0,2.72.219v.583H75.585v-.68a20.846,20.846,0,0,0,2.4-.193M94.262,18.071a4.973,4.973,0,0,0,2.283-1.651,6.754,6.754,0,0,0,1.19-2.793,20.059,20.059,0,0,0,.341-3.959,16.641,16.641,0,0,0-.364-3.618A7.667,7.667,0,0,0,96.52,3.255a5.359,5.359,0,0,0-2.234-1.8,8.414,8.414,0,0,0-3.448-.63H88.6V18.6h2.04a10.48,10.48,0,0,0,3.619-.534" transform="translate(1.278 0)" fill="#eff0ef"/>
        <path id="Path_866" data-name="Path 866" d="M111.858,32.653a1.387,1.387,0,0,0,.607-1.263V14.583a2.332,2.332,0,0,0-.607-1.725,4.2,4.2,0,0,0-2.7-.656V11.62l10.687-.583V15.6a8.9,8.9,0,0,1,2.938-3.473,6.758,6.758,0,0,1,3.862-1.24,4.6,4.6,0,0,1,3.473,1.24,4.334,4.334,0,0,1,1.191,3.132,4.446,4.446,0,0,1-1.069,3.085,3.55,3.55,0,0,1-2.769,1.19,3.938,3.938,0,0,1-3.06-1.166,3.781,3.781,0,0,1-1.069-2.623,5.535,5.535,0,0,1,.121-1.118q.122-.583.267-1.068a4.174,4.174,0,0,0-1.967.922,6.9,6.9,0,0,0-1.822,2.089V31.39a1.433,1.433,0,0,0,.17.729,1.27,1.27,0,0,0,.656.485,6.054,6.054,0,0,0,1.361.316q.874.121,2.283.17v.583H109.162V33.09a6.159,6.159,0,0,0,2.7-.437" transform="translate(1.846 0.184)" fill="#eff0ef"/>
        <path id="Path_867" data-name="Path 867" d="M136.748,31q-3.132-3.06-3.133-8.549a13.253,13.253,0,0,1,.85-4.881,10.51,10.51,0,0,1,2.405-3.692,10.21,10.21,0,0,1,3.813-2.331,14.932,14.932,0,0,1,5.027-.8q5.732,0,8.89,3.035t3.158,8.476a13.454,13.454,0,0,1-.85,4.907,10.181,10.181,0,0,1-6.194,6.072,14.351,14.351,0,0,1-5,.826q-5.828,0-8.962-3.061m11.124,1.336a5.162,5.162,0,0,0,1.19-2.162,16.213,16.213,0,0,0,.608-3.376q.169-1.966.17-4.444a40.672,40.672,0,0,0-.219-4.445,14.425,14.425,0,0,0-.729-3.352,4.986,4.986,0,0,0-1.36-2.113,3.062,3.062,0,0,0-2.064-.728,2.8,2.8,0,0,0-1.992.728,4.83,4.83,0,0,0-1.214,2.113,14.863,14.863,0,0,0-.583,3.352q-.146,1.968-.145,4.445a40.662,40.662,0,0,0,.218,4.444,14.836,14.836,0,0,0,.729,3.376,5.3,5.3,0,0,0,1.336,2.162,2.983,2.983,0,0,0,2.089.753,2.662,2.662,0,0,0,1.967-.753" transform="translate(2.26 0.182)" fill="#eff0ef"/>
        <path id="Path_868" data-name="Path 868" d="M162.7,41.836a1.405,1.405,0,0,0,.584-1.263V14.585a2.328,2.328,0,0,0-.608-1.724,4.187,4.187,0,0,0-2.695-.656v-.584l10.686-.583V13.9a18.051,18.051,0,0,1,3.327-2.283,8.019,8.019,0,0,1,3.765-.874,8.624,8.624,0,0,1,3.862.826,7.942,7.942,0,0,1,2.817,2.306,10.632,10.632,0,0,1,1.749,3.595,17.147,17.147,0,0,1,.607,4.737,15.209,15.209,0,0,1-.68,4.59,11.184,11.184,0,0,1-1.991,3.765,9.561,9.561,0,0,1-3.255,2.549,10.07,10.07,0,0,1-4.468.948,17.531,17.531,0,0,1-3.061-.243,11.305,11.305,0,0,1-2.574-.777v7.529a1.421,1.421,0,0,0,.17.728,1.276,1.276,0,0,0,.68.486A6.537,6.537,0,0,0,173,42.1a22.644,22.644,0,0,0,2.283.17v.584H160.029v-.584a5.971,5.971,0,0,0,2.671-.436m15.132-11.318q1.092-2.575,1.093-8.015a24.95,24.95,0,0,0-.243-3.57,11.967,11.967,0,0,0-.777-2.939A5.138,5.138,0,0,0,176.5,14a3.3,3.3,0,0,0-2.185-.728,6.5,6.5,0,0,0-3.546,1.311v15.69a5.211,5.211,0,0,0,1.87,2.21,4.406,4.406,0,0,0,2.259.607q1.846,0,2.939-2.574" transform="translate(2.706 0.182)" fill="#eff0ef"/>
        <path id="Path_869" data-name="Path 869" d="M197.115,33.335a10.411,10.411,0,0,1-3.765-2.162,9.73,9.73,0,0,1-2.453-3.545,12.679,12.679,0,0,1-.875-4.882,13.267,13.267,0,0,1,.922-5.1,10.7,10.7,0,0,1,2.55-3.765,11.112,11.112,0,0,1,3.789-2.331,13.221,13.221,0,0,1,4.639-.8,12.292,12.292,0,0,1,4.615.8,8.616,8.616,0,0,1,3.3,2.283,9.423,9.423,0,0,1,1.943,3.546,13.061,13.061,0,0,1,.486,4.59H197.892v.777q0,4.614,1.821,6.922a6.37,6.37,0,0,0,5.319,2.307,6.552,6.552,0,0,0,3.716-1.02,11.8,11.8,0,0,0,2.89-2.867l.534.341a12.725,12.725,0,0,1-4.153,4.153,11.506,11.506,0,0,1-6.048,1.482,15.285,15.285,0,0,1-4.857-.729M198.887,14.2a24.22,24.22,0,0,0-1,6.8h6.9a16.718,16.718,0,0,0-.316-6.776q-.8-2.5-2.841-2.5-1.894,0-2.745,2.477" transform="translate(3.214 0.182)" fill="#eff0ef"/>
        <path id="Path_870" data-name="Path 870" d="M217.937,32.653a1.387,1.387,0,0,0,.607-1.263V14.583a2.332,2.332,0,0,0-.607-1.725,4.2,4.2,0,0,0-2.7-.656V11.62l10.686-.583V15.6a8.906,8.906,0,0,1,2.939-3.473,6.758,6.758,0,0,1,3.862-1.24,4.6,4.6,0,0,1,3.473,1.24,4.334,4.334,0,0,1,1.191,3.132,4.446,4.446,0,0,1-1.069,3.085,3.55,3.55,0,0,1-2.769,1.19,3.938,3.938,0,0,1-3.06-1.166,3.781,3.781,0,0,1-1.069-2.623,5.532,5.532,0,0,1,.121-1.118q.122-.583.267-1.068a4.174,4.174,0,0,0-1.967.922,6.9,6.9,0,0,0-1.822,2.089V31.39a1.433,1.433,0,0,0,.17.729,1.271,1.271,0,0,0,.656.485,6.054,6.054,0,0,0,1.361.316q.874.121,2.283.17v.583H215.241V33.09a6.159,6.159,0,0,0,2.7-.437" transform="translate(3.641 0.184)" fill="#eff0ef"/>
        <path id="Path_871" data-name="Path 871" d="M247.125,33.826a6.134,6.134,0,0,1-2.332-1.19,5.735,5.735,0,0,1-1.579-2.162,8.354,8.354,0,0,1-.583-3.327V13.3h-4.225V12.38l4.323-.875V5.336l7.384-2.04V11.6h6.849v1.6h-6.849V27.584a5.956,5.956,0,0,0,.607,3.035,2.428,2.428,0,0,0,2.259,1,3,3,0,0,0,2.016-.729,6.234,6.234,0,0,0,1.53-2.381l.632.292a8.851,8.851,0,0,1-2.6,4.08,7.14,7.14,0,0,1-4.59,1.312,10.752,10.752,0,0,1-2.841-.364" transform="translate(4.033 0.056)" fill="#eff0ef"/>
        <path id="Path_872" data-name="Path 872" d="M260.527,13.34a3.192,3.192,0,0,0-.777-.826,3.287,3.287,0,0,0-1.045-.486,14.269,14.269,0,0,0-1.481-.315V11.13H271.5v.583a5.507,5.507,0,0,0-2.5.7q-.558.462-.024,1.676l5.538,12.532,4.08-10.346q.876-2.186.145-3.182t-3.351-1.384V11.13h9.763v.583a6.651,6.651,0,0,0-2.793.947,5.218,5.218,0,0,0-1.919,2.454L271.6,36.292a17.442,17.442,0,0,1-1.773,3.4,11.408,11.408,0,0,1-1.919,2.185,5.951,5.951,0,0,1-2.016,1.165,6.756,6.756,0,0,1-2.113.341,5.6,5.6,0,0,1-3.618-1.044,3.626,3.626,0,0,1-1.287-2.988,3.471,3.471,0,0,1,.243-1.262,3.569,3.569,0,0,1,.679-1.118,3.474,3.474,0,0,1,1.093-.8,3.374,3.374,0,0,1,1.482-.316,3.234,3.234,0,0,1,2.38.971,3.352,3.352,0,0,1,.972,2.477,3.738,3.738,0,0,1-.413,1.822,4.479,4.479,0,0,1-.9,1.19,5.257,5.257,0,0,0,3.4-1.676,15.565,15.565,0,0,0,2.914-5.076l.292-.679-9.764-20.207a10.472,10.472,0,0,0-.728-1.336" transform="translate(4.351 0.188)" fill="#eff0ef"/>
        <path id="Path_873" data-name="Path 873" d="M29.728,80.3l-.049-22.1L21.518,76.9H15.884l-8.161-18.7V80.3H0V46.245H9.472L18.7,66.5,27.93,46.245h9.424V80.3Z" transform="translate(0 0.782)" fill="#eff0ef"/>
        <path id="Path_874" data-name="Path 874" d="M51.248,74.029,48.77,80.3H39.881l14.67-34H63.44l14.329,34H68.541l-2.428-6.266Zm7.48-19.138L53.774,67.472h9.811Z" transform="translate(0.675 0.783)" fill="#eff0ef"/>
        <path id="Path_875" data-name="Path 875" d="M103.994,80.3,88.353,59.359V80.3H80.241v-34h7.626l15.69,20.984V46.293h8.064v34Z" transform="translate(1.357 0.783)" fill="#eff0ef"/>
        <path id="Path_876" data-name="Path 876" d="M125.566,74.029,123.088,80.3H114.2l14.67-34h8.889l14.329,34h-9.228l-2.429-6.266Zm7.48-19.138-4.954,12.581H137.9Z" transform="translate(1.932 0.783)" fill="#eff0ef"/>
        <path id="Path_877" data-name="Path 877" d="M183.756,63.008V76.268a26.714,26.714,0,0,1-14.135,4.421c-10.347,0-18.167-7.48-18.167-17.389,0-9.861,8.015-17.293,18.75-17.293A21.733,21.733,0,0,1,184.1,51.058l-4.857,5.878a13.959,13.959,0,0,0-9.084-3.691,10.106,10.106,0,0,0,.1,20.207,14.448,14.448,0,0,0,6.023-1.651V63.008Z" transform="translate(2.562 0.778)" fill="#eff0ef"/>
        <path id="Path_878" data-name="Path 878" d="M197.785,53.094v6.752h16.224v6.8H197.785v6.849h18.507v6.8H189.14v-34h26.619v6.8Z" transform="translate(3.199 0.783)" fill="#eff0ef"/>
        <path id="Path_879" data-name="Path 879" d="M251.059,80.3l-.049-22.1L242.85,76.9h-5.635l-8.161-18.7V80.3h-7.722V46.245H230.8l9.23,20.256,9.229-20.256h9.424V80.3Z" transform="translate(3.744 0.782)" fill="#eff0ef"/>
        <path id="Path_880" data-name="Path 880" d="M273.441,53.094v6.752h16.224v6.8H273.441v6.849h18.507v6.8H264.8v-34h26.619v6.8Z" transform="translate(4.479 0.783)" fill="#eff0ef"/>
        <path id="Path_881" data-name="Path 881" d="M320.74,80.3,305.1,59.359V80.3h-8.112v-34h7.626L320.3,67.277V46.293h8.064v34Z" transform="translate(5.023 0.783)" fill="#eff0ef"/>
        <path id="Path_882" data-name="Path 882" d="M350.318,53.24V80.3h-8.647V53.24H331.519v-7h29.048v7Z" transform="translate(5.607 0.782)" fill="#eff0ef"/>
      </g>
    </g>
  </g>
</svg>
