<svg xmlns="http://www.w3.org/2000/svg" width="381.763" height="144" viewBox="0 0 381.763 144">
  <g id="Logo" transform="translate(-120 -58)">
    <path id="PT_Logo_-_Hor" data-name="PT Logo - Hor" d="M59.04-101.736V-139.02H75.388v37.284a12.951,12.951,0,0,0,3.534,10.051,12.952,12.952,0,0,0,9.874,4c7.716,0,12.948-5.328,12.948-14.052V-139.02H118v37.284C118-84.748,106.7-74,88.7-74,70.612-74,59.04-84.744,59.04-101.736Zm66.164,27V-139.02h22.72v-63.368h8.448v7.716a20.732,20.732,0,0,1,17.356-8.172,23.624,23.624,0,0,1,17.787,6.961,23.624,23.624,0,0,1,6.825,17.839l-.011-.008a23.649,23.649,0,0,1-6.8,17.889,23.65,23.65,0,0,1-17.813,7,20.8,20.8,0,0,1-16.992-7.9v22.115c15.268.845,23.948,8.8,23.948,22.325a21.425,21.425,0,0,1-11.664,20.664l13.5,21.2H163.956l-9.548-18.068H141.552v18.092Zm16.344-30.952,12.4,0c7.072,0,11.2-3.6,11.2-10.38,0-6.7-4.132-10.1-11.2-10.1h-12.4Zm15.084-72.36a16.4,16.4,0,0,0,16.4,16.4,16.4,16.4,0,0,0,16.4-16.4,16.4,16.4,0,0,0-16.4-16.4A16.4,16.4,0,0,0,156.632-178.044Zm176,103.308v-20.3l-23.784-44H325.2l15.52,28,15.152-28h16.348L348.887-95.5v20.764Zm-101.18,0-17-25.256-8.54,9.46v15.8h-16.34V-139.02h16.348v27.828l24.612-27.828h18.92l-23.876,26.632,25.44,37.652Zm-215.252,0v-51.152H-3v-13.224H51.92v13.224H32.54v51.152Zm239.115,0v-64.28h50.328v12.856h-33.98V-113.4h30.676v12.856H271.663V-87.6h34.988V-74.74Zm70.012-65.108,3.764-6.612a12.449,12.449,0,0,0,8.724,3.6c4.224,0,6.888-1.928,9.276-7.531l1.56-3.4-21.492-48.58h9.2l16.968,38.924,16.8-38.94h8.636l-23.6,53.54c-4.316,10.284-9.919,13.5-17.356,13.5q-.232.006-.464.006A18.277,18.277,0,0,1,325.327-139.848ZM95.4-160.075a24.221,24.221,0,0,1-7.242-17.977,25.3,25.3,0,0,1,15.319-23.668,25.3,25.3,0,0,1,27.71,5.2,25.3,25.3,0,0,1,5.7,27.61,25.3,25.3,0,0,1-23.383,15.75q-.57.027-1.138.026A24.22,24.22,0,0,1,95.4-160.075Zm1.651-17.977a16.4,16.4,0,0,0,16.4,16.4,16.4,16.4,0,0,0,16.4-16.4,16.4,16.4,0,0,0-16.4-16.4A16.4,16.4,0,0,0,97.052-178.052ZM230.1-153.176c-15.7,0-26.172-10.376-26.172-24.888a23.837,23.837,0,0,1,6.834-17.7,23.836,23.836,0,0,1,17.593-7.1c14.052,0,24.06,10.1,24.06,25.072,0,.736-.092,1.836-.184,2.664l0,0H212.744a16.484,16.484,0,0,0,17.632,14.236,18.171,18.171,0,0,0,14.052-5.876l4.868,5.692a24.438,24.438,0,0,1-18.012,7.925C230.888-153.147,230.492-153.157,230.1-153.176ZM212.74-181.464h31.224a15.712,15.712,0,0,0-15.612-13.943A15.712,15.712,0,0,0,212.74-181.464Zm102.551,28.3c-9.828,0-15.428-5.42-15.428-15.244v-26.724H291.6v-7.256h8.264V-213.04h8.8v10.652h13.96v7.256h-13.96v26.356a7.173,7.173,0,0,0,1.855,5.912,7.173,7.173,0,0,0,5.769,2.26,11.1,11.1,0,0,0,6.888-2.3l2.772,6.34a16.636,16.636,0,0,1-10.084,3.406Q315.575-153.154,315.291-153.164Zm-53.9-.568v-48.656h8.448v8.172c3.121-5.688,9.192-8.628,17.708-8.632v8.524a15.452,15.452,0,0,0-2.02-.092c-9.46,0-15.336,5.788-15.336,16.44v24.244Zm-201.98,0v-48.656h8.448v8.172c3.122-5.688,9.192-8.629,17.708-8.632v8.524a15.451,15.451,0,0,0-2.02-.092c-9.46,0-15.336,5.788-15.336,16.44v24.244Zm-60.34,0V-218H24.14c16.716,0,26.8,8.448,26.8,22.4h.032c0,13.96-10.1,22.4-26.8,22.4H8.268v19.468Zm9.164-27.44h15.6c11.756,0,17.908-5.236,17.908-14.4v-.028c0-9.2-6.152-14.4-17.908-14.4H8.232Zm279.311-21.676h.016Zm-201.98,0h.016Z" transform="translate(123 276)" fill="#ea2427"/>
  </g>
</svg>
