<svg id="Group_130" data-name="Group 130" xmlns="http://www.w3.org/2000/svg" width="899.791" height="165.374" viewBox="0 0 899.791 165.374">
  <path id="Path_461" data-name="Path 461" d="M77.2,37.512c92.624-5.416,233.418-2.581,327.472-3.221C499.093,34.9,639,32.156,732.142,37.512c-92.624,5.334-233.418,2.624-327.468,3.221C310.25,40.076,170.341,42.949,77.2,37.512" transform="translate(58.177 124.457)" fill="#eff0ef"/>
  <text id="ECOSYSTEM" transform="translate(169.791 110)" fill="#eff0ef" font-size="114" font-family="Montserrat-ExtraBold, Montserrat" font-weight="800"><tspan x="0" y="0">E</tspan><tspan y="0" letter-spacing="-0.014em">C</tspan><tspan y="0">O</tspan><tspan y="0" letter-spacing="-0.014em">SY</tspan><tspan y="0" letter-spacing="-0.009em">S</tspan><tspan y="0">TEM</tspan></text>
  <path id="Path_462" data-name="Path 462" d="M83.735,3.908H45.679V87.157H69.227V65.4H83.735c22.715,0,36.986-11.776,36.986-30.686,0-19.026-14.271-30.8-36.986-30.8M82.309,46.842H69.227V22.461H82.309c9.753,0,14.628,4.522,14.628,12.249,0,7.615-4.875,12.133-14.628,12.133" transform="translate(-45.679 24.958)" fill="#eff0ef"/>
  <path id="Path_463" data-name="Path 463" d="M61.584,3.908c.76.541,1.507,1.1,2.22,1.692A35.134,35.134,0,0,1,75.117,22.581H87.125V87.157h23.548V22.581h25.451V3.908Z" transform="translate(6.724 24.958)" fill="#eff0ef"/>
</svg>
