<svg xmlns="http://www.w3.org/2000/svg" width="599.52" height="124.8" viewBox="0 0 599.52 124.8">
  <path id="Path_898" data-name="Path 898" d="M-507.6,0h18l.64-2-6.56-1.2,1.76-13.44h2.56c11.68,0,19.76-6.32,19.76-14.4,0-7.12-5.44-11.12-15.52-11.12h-15.28l-.64,2,5.04,1.36-4.48,32.48c-.32,2.56-1.36,3.68-4.64,4.32Zm16.8-38.88h1.76c7.04,0,10.24,2.88,10.24,8.16,0,6.88-4.56,11.2-13.6,11.2h-1.04Zm20.96,9.28.64,1.92a10.4,10.4,0,0,1,4.64.72,8.35,8.35,0,0,1,.4,2.48,65.006,65.006,0,0,1-1.44,10.32,47.839,47.839,0,0,0-1.28,8.4,6.438,6.438,0,0,0,4.72,6.4,16.18,16.18,0,0,0,8.24-3.92l-.8-2.24a13.305,13.305,0,0,1-4.4,1.36c-.88-.48-1.36-1.36-1.36-3.04a57.484,57.484,0,0,1,1.6-9.76,52.378,52.378,0,0,0,1.2-8.96c0-3.92-1.84-6-4.24-6A20.683,20.683,0,0,0-469.84-29.6Zm6.88-10.16a3.177,3.177,0,0,0,3.2,3.44c2.88,0,4.16-2.16,4.16-4.48a3.208,3.208,0,0,0-3.12-3.44A4.371,4.371,0,0,0-462.96-39.76ZM-436.8-3.28c-3.04,0-5.52-2.96-5.52-9.76,0-9.68,3.28-14.96,7.52-14.96,3.12,0,5.6,2.96,5.6,9.76C-429.2-8.48-432.56-3.28-436.8-3.28Zm-12.64-8.24C-449.44-4-444.96.64-438.48.64c8.08,0,16.4-8.16,16.4-20.4,0-7.52-4.56-12.16-10.96-12.16C-441.12-31.92-449.44-23.76-449.44-11.52ZM-416.24.64l7.6-.64c0-6.64.16-9.76,1.2-14.08,1.28-6.24,7.36-12.16,10.8-12.56.64.56,1.04,1.92,1.04,3.76a53.188,53.188,0,0,1-1.2,8.72,48.539,48.539,0,0,0-1.28,8.48,6.459,6.459,0,0,0,4.8,6.32,15.926,15.926,0,0,0,8.16-3.92l-.8-2.16a13.637,13.637,0,0,1-4.24,1.28c-.96-.48-1.52-1.36-1.52-3.04a58.244,58.244,0,0,1,1.44-8.88,50.03,50.03,0,0,0,1.2-8.4c0-4.56-2.72-7.44-6.16-7.44-3.76,0-7.76,3.44-11.68,10.16h-.16c0-8-1.44-10.16-3.68-10.16a19.216,19.216,0,0,0-7.76,2.32l.64,1.92c2.64,0,4.08.32,4.72.8a8.629,8.629,0,0,1,.32,2.56c0,2.08-.24,4.32-1.2,10.16ZM-360.4-6a21.13,21.13,0,0,1-7.36,1.44c-4.4,0-6.8-2.08-6.8-7.44a5.753,5.753,0,0,1,.08-1.44c11.2-1.68,17.36-6.48,17.36-12.16,0-3.84-2.88-6.32-6.96-6.32-9.2,0-17.36,10.96-17.36,21.68,0,6.88,4.4,10.88,10.24,10.88a20.675,20.675,0,0,0,11.68-4.4Zm-13.84-10.24c.64-6.96,4.56-11.84,7.76-11.84,1.6,0,2.72.96,2.72,3.28C-363.76-20.88-366.8-17.84-374.24-16.24ZM-333.2-6a21.13,21.13,0,0,1-7.36,1.44c-4.4,0-6.8-2.08-6.8-7.44a5.753,5.753,0,0,1,.08-1.44c11.2-1.68,17.36-6.48,17.36-12.16,0-3.84-2.88-6.32-6.96-6.32-9.2,0-17.36,10.96-17.36,21.68,0,6.88,4.4,10.88,10.24,10.88a20.675,20.675,0,0,0,11.68-4.4Zm-13.84-10.24c.64-6.96,4.56-11.84,7.76-11.84,1.6,0,2.72.96,2.72,3.28C-336.56-20.88-339.6-17.84-347.04-16.24ZM-325.2.64l7.68-.64c-.08-6.8.08-10.08.88-14,1.6-7.76,5.6-10.72,13.2-11.2-.08-4.16-1.44-6.72-3.44-6.72-2.48,0-6.72,3.84-9.04,10.16H-316c0-8-1.44-10.16-3.68-10.16a20.616,20.616,0,0,0-7.68,2.24l.72,2c2.64,0,3.92.32,4.48.8a7.828,7.828,0,0,1,.32,2.56,78.008,78.008,0,0,1-1.04,10Zm23.28-30.24.64,1.92a10.4,10.4,0,0,1,4.64.72,8.35,8.35,0,0,1,.4,2.48,65.006,65.006,0,0,1-1.44,10.32,47.839,47.839,0,0,0-1.28,8.4,6.438,6.438,0,0,0,4.72,6.4A16.18,16.18,0,0,0-286-3.28l-.8-2.24a13.305,13.305,0,0,1-4.4,1.36c-.88-.48-1.36-1.36-1.36-3.04a57.484,57.484,0,0,1,1.6-9.76,52.378,52.378,0,0,0,1.2-8.96c0-3.92-1.84-6-4.24-6A20.683,20.683,0,0,0-301.92-29.6Zm6.88-10.16a3.177,3.177,0,0,0,3.2,3.44c2.88,0,4.16-2.16,4.16-4.48a3.208,3.208,0,0,0-3.12-3.44A4.371,4.371,0,0,0-295.04-39.76ZM-280.88.64l7.6-.64c0-6.64.16-9.76,1.2-14.08,1.28-6.24,7.36-12.16,10.8-12.56.64.56,1.04,1.92,1.04,3.76a53.188,53.188,0,0,1-1.2,8.72,48.539,48.539,0,0,0-1.28,8.48,6.459,6.459,0,0,0,4.8,6.32,15.926,15.926,0,0,0,8.16-3.92l-.8-2.16a13.637,13.637,0,0,1-4.24,1.28c-.96-.48-1.52-1.36-1.52-3.04a58.244,58.244,0,0,1,1.44-8.88,50.031,50.031,0,0,0,1.2-8.4c0-4.56-2.72-7.44-6.16-7.44-3.76,0-7.76,3.44-11.68,10.16h-.16c0-8-1.44-10.16-3.68-10.16a19.216,19.216,0,0,0-7.76,2.32l.64,1.92c2.64,0,4.08.32,4.72.8a8.629,8.629,0,0,1,.32,2.56c0,2.08-.24,4.32-1.2,10.16Zm37.36.88-.08-.08c-3.84.72-6.24,3.28-6.24,5.92,0,4,4.24,6.64,10.96,6.64,9.6,0,16.48-5.44,16.48-10.8,0-3.04-2-5.28-7.2-6.88-3.36-1.04-5.92-1.68-7.68-2.08V-6l5.52-3.52c7.36-4.56,9.6-8.56,9.6-12.96a9.33,9.33,0,0,0-3.52-7.36h6.88a6.4,6.4,0,0,0,.32-1.92c0-2-1.28-3.6-2.96-3.6s-3.76,1.44-5.44,4.64a10.42,10.42,0,0,0-5.04-1.2c-6.96,0-12.96,6.96-12.96,13.76,0,4.08,3.2,7.68,7.92,8.32l.16.08-3.36,2.16C-242.88-5.76-244-4.56-244-3.68c0,1.44,2,2.48,7.76,4,6.16,1.68,7.6,3.04,7.6,4.96,0,2.72-3.2,5.36-8.24,5.36-4.72,0-7.2-2.48-7.2-6.08A8.943,8.943,0,0,1-243.52,1.52ZM-234-12.56c-2.4,0-4.4-2-4.4-6.96,0-6.24,2.8-9.36,5.36-9.36,2.4,0,4.4,2.32,4.4,7.36C-228.64-16.08-231.12-12.56-234-12.56ZM-198.8,0h18l.64-2.08-5.92-1.12,4.8-35.84,10.88,1.44-.8,4.64h2.72l3.92-9.2h-38.4l.48,9.2h2.64l1.12-4.64,10.56-1.44-4.4,32c-.48,3.28-1.76,4.32-5.6,5.04Zm28.16-29.6.64,1.92c2.64,0,4.08.32,4.8.8a6.08,6.08,0,0,1,.4,2.48,42.462,42.462,0,0,1-1.36,8.72,42.855,42.855,0,0,0-1.36,8.96c0,4.88,2.72,7.36,6.16,7.36,3.84,0,6.88-2.4,11.44-10.32l.16.08a20.6,20.6,0,0,0-.4,3.6c0,3.92,1.68,6.08,4.24,6.64a15.022,15.022,0,0,0,7.84-3.76l-.8-2.24a11.475,11.475,0,0,1-4,1.12c-.96-.48-1.44-1.28-1.44-3.52,0-4.32,1.52-12.8,4.4-24.16l-7.52.64c-.64,8.72-1.92,14.56-4.4,19.68-2.4,5.12-4.96,7.04-6.88,7.04-1.44,0-2.24-1.04-2.24-3.92a55.7,55.7,0,0,1,1.52-9.92,44.321,44.321,0,0,0,1.2-8.16c0-3.2-2-5.36-4.32-5.36A18.558,18.558,0,0,0-170.64-29.6ZM-132.96.64l7.68-.64c-.08-6.8.08-10.08.88-14,1.6-7.76,5.6-10.72,13.2-11.2-.08-4.16-1.44-6.72-3.44-6.72-2.48,0-6.72,3.84-9.04,10.16h-.08c0-8-1.44-10.16-3.68-10.16a20.616,20.616,0,0,0-7.68,2.24l.72,2c2.64,0,3.92.32,4.48.8a7.829,7.829,0,0,1,.32,2.56,78.01,78.01,0,0,1-1.04,10Zm22.88,0,7.44-.64a25.335,25.335,0,0,1,6-16.08C-95.36-6.16-91.92-.8-88,.72a9.349,9.349,0,0,0,6.48-5.6l-.24-.32c-5.6-.72-10.24-6-12.72-12.96a26.984,26.984,0,0,1,12.8-8.08c-.08-3.52-1.6-5.68-3.44-5.68-2.96,0-11.68,8.16-17.04,18.88h-.32c1.04-4,1.84-8.48,2.32-11.44l2.96-18.8a5.673,5.673,0,0,0-2.64-2.48,21.209,21.209,0,0,0-11.12,3.28l1.12,2.24a8.56,8.56,0,0,1,3.28-.64c1.36,0,2,.48,2,2.16C-104.56-35.68-106.64-19.12-110.08.64Zm31.2-30.24.64,1.92a10.4,10.4,0,0,1,4.64.72,8.349,8.349,0,0,1,.4,2.48,65,65,0,0,1-1.44,10.32,47.839,47.839,0,0,0-1.28,8.4A6.438,6.438,0,0,0-71.2.64a16.18,16.18,0,0,0,8.24-3.92l-.8-2.24a13.305,13.305,0,0,1-4.4,1.36c-.88-.48-1.36-1.36-1.36-3.04a57.486,57.486,0,0,1,1.6-9.76,52.378,52.378,0,0,0,1.2-8.96c0-3.92-1.84-6-4.24-6A20.683,20.683,0,0,0-78.88-29.6ZM-72-39.76a3.177,3.177,0,0,0,3.2,3.44c2.88,0,4.16-2.16,4.16-4.48a3.208,3.208,0,0,0-3.12-3.44A4.371,4.371,0,0,0-72-39.76Zm15.84,28.08A6.272,6.272,0,0,0-60-6.08c0,3.52,3.6,6.8,9.44,6.8,6.96,0,12.32-5.12,12.32-10.4,0-2.64-1.28-4.8-6.64-8.88-4.72-3.44-5.76-4.64-5.76-6.08,0-1.36,1.76-2.8,4-2.8a8.1,8.1,0,0,1,6.48,3.92,4.153,4.153,0,0,0,2.72-3.68c0-2.4-2.72-4.72-6.8-4.72-5.44,0-11.28,5.76-11.28,10.08,0,2.64.88,4.64,5.52,8.24,5.36,4.08,6.56,5.44,6.56,7.04,0,1.76-1.52,3.12-4.16,3.12-4.32,0-7.84-3.36-8.4-8.16ZM-25.2,0c0-6.64.16-9.76,1.12-14.08,1.28-6.16,7.6-12.24,11.04-12.72.64.48,1.12,2,1.12,3.84a51.726,51.726,0,0,1-1.12,8.8,40.377,40.377,0,0,0-1.28,8.48A6.48,6.48,0,0,0-9.6.64,16.493,16.493,0,0,0-1.36-3.28l-.8-2.16A13.237,13.237,0,0,1-6.48-4.16c-.96-.48-1.44-1.36-1.44-3.04a56.25,56.25,0,0,1,1.36-8.88,43.909,43.909,0,0,0,1.28-8.4c0-4.56-2.72-7.44-6.48-7.44-3.52,0-6.96,2.96-11.84,10.48h-.16c.48-1.92.8-3.6,1.28-6.08L-20-43.28a5.325,5.325,0,0,0-2.64-2.48,21.209,21.209,0,0,0-11.12,3.28l1.12,2.24a8.978,8.978,0,0,1,3.36-.64c1.2,0,2,.48,2,2.16,0,4-2.32,19.76-5.52,39.36ZM-600.88,78h16.16l.56-2-4.64-1.2,2-14.96h5.04l6,11.84c2.8,5.44,4.8,7.12,8.24,7.12a11.426,11.426,0,0,0,5.12-1.36l.4-1.6c-3.6-.88-5.2-2.48-7.68-7.28l-5.2-9.76c6.56-1.84,10.48-6.72,10.48-12.64,0-5.84-4.88-10.32-15.6-10.32h-15.52l-.64,2,5.04,1.36-4.48,32.48c-.32,2.56-1.36,3.68-4.64,4.32Zm16.8-38.88h1.68c7.12,0,10.56,2.72,10.56,7.6,0,6.48-4.48,10.24-12.4,10.24h-2.24ZM-538.72,72a21.131,21.131,0,0,1-7.36,1.44c-4.4,0-6.8-2.08-6.8-7.44a5.753,5.753,0,0,1,.08-1.44c11.2-1.68,17.36-6.48,17.36-12.16,0-3.84-2.88-6.32-6.96-6.32-9.2,0-17.36,10.96-17.36,21.68,0,6.88,4.4,10.88,10.24,10.88a20.675,20.675,0,0,0,11.68-4.4Zm-13.84-10.24c.64-6.96,4.56-11.84,7.76-11.84,1.6,0,2.72.96,2.72,3.28C-542.08,57.12-545.12,60.16-552.56,61.76Zm49.2,10.8a11.8,11.8,0,0,1-4.24,1.28c-.96-.48-1.52-1.36-1.52-4.24,0-3.12,1.84-13.84,3.36-21.28a32.245,32.245,0,0,0-10.88-2.24c-3.28,0-6.72,2.08-9.84,6a29.642,29.642,0,0,0-6.32,17.28c0,5.36,2.8,9.28,6.64,9.28,3.76,0,7.52-2.8,11.52-9.52-.56,5.6.72,8.48,3.92,9.52a15.926,15.926,0,0,0,8.16-3.92Zm-9.28-20.88a53.266,53.266,0,0,1-2.24,11.44c-2.08,6.56-5.44,10.32-8.08,10.32-1.84,0-3.2-1.52-3.2-6.8,0-7.84,3.36-14.4,6.16-15.92a4.151,4.151,0,0,1,1.84-.32A15.207,15.207,0,0,1-512.64,51.68Zm13.2-16.16,1.12,2.24a8.978,8.978,0,0,1,3.36-.64c1.2,0,2,.48,2,2.16,0,3.04-1.04,10-2.24,16.96-1.12,6.96-2.24,13.68-2.24,16a6.272,6.272,0,0,0,4.8,6.4,16.236,16.236,0,0,0,8.16-3.92l-.8-2.16a14.574,14.574,0,0,1-4.4,1.28c-.88-.48-1.36-1.36-1.36-3.04a64.566,64.566,0,0,1,1.12-8.88l4.24-27.2a5.018,5.018,0,0,0-2.64-2.48A21.425,21.425,0,0,0-499.44,35.52ZM-469.04,78h28.4l2.08-9.6h-2.72L-444,73.44l-13.12,1.36,2.4-16.88h12.4l.64-3.6h-12.64l2.08-15.28,11.68,1.28-.64,4.4h2.8l3.84-8.88h-29.12l-.64,2,5.04,1.36-4.48,32.48c-.32,2.56-1.36,3.68-4.64,4.32Zm38.32-11.68a6.272,6.272,0,0,0-3.84,5.6c0,3.52,3.6,6.8,9.44,6.8,6.96,0,12.32-5.12,12.32-10.4,0-2.64-1.28-4.8-6.64-8.88-4.72-3.44-5.76-4.64-5.76-6.08,0-1.36,1.76-2.8,4-2.8a8.1,8.1,0,0,1,6.48,3.92A4.153,4.153,0,0,0-412,50.8c0-2.4-2.72-4.72-6.8-4.72-5.44,0-11.28,5.76-11.28,10.08,0,2.64.88,4.64,5.52,8.24,5.36,4.08,6.56,5.44,6.56,7.04,0,1.76-1.52,3.12-4.16,3.12-4.32,0-7.84-3.36-8.4-8.16Zm29.12-25.76-.96,6.32-5.68.16.16.8c.24,1.36,1.2,2.32,5.04,2.64l-2,14.16a48.617,48.617,0,0,0-.8,7.76c0,4,2.32,6.24,6.08,6.24,3.2,0,7.36-2.08,10.08-4.48l-.8-2.24a15.219,15.219,0,0,1-6.24,1.68c-1.6,0-2.4-.88-2.4-3.04,0-2.24.4-5.44,2.64-19.92h6.8l.96-3.92h-7.2l1.28-8.88Zm44.4,32a11.8,11.8,0,0,1-4.24,1.28c-.96-.48-1.52-1.36-1.52-4.24,0-3.12,1.84-13.84,3.36-21.28a32.245,32.245,0,0,0-10.88-2.24c-3.28,0-6.72,2.08-9.84,6a29.642,29.642,0,0,0-6.32,17.28c0,5.36,2.8,9.28,6.64,9.28,3.76,0,7.52-2.8,11.52-9.52-.56,5.6.72,8.48,3.92,9.52a15.926,15.926,0,0,0,8.16-3.92Zm-9.28-20.88a53.269,53.269,0,0,1-2.24,11.44c-2.08,6.56-5.44,10.32-8.08,10.32-1.84,0-3.2-1.52-3.2-6.8,0-7.84,3.36-14.4,6.16-15.92A4.151,4.151,0,0,1-372,50.4,15.207,15.207,0,0,1-366.48,51.68Zm20-11.12-.96,6.32-5.68.16.16.8c.24,1.36,1.2,2.32,5.04,2.64l-2,14.16a48.617,48.617,0,0,0-.8,7.76c0,4,2.32,6.24,6.08,6.24,3.2,0,7.36-2.08,10.08-4.48l-.8-2.24a15.219,15.219,0,0,1-6.24,1.68c-1.6,0-2.4-.88-2.4-3.04,0-2.24.4-5.44,2.64-19.92h6.8l.96-3.92h-7.2l1.28-8.88ZM-310.72,72a21.13,21.13,0,0,1-7.36,1.44c-4.4,0-6.8-2.08-6.8-7.44a5.753,5.753,0,0,1,.08-1.44c11.2-1.68,17.36-6.48,17.36-12.16,0-3.84-2.88-6.32-6.96-6.32-9.2,0-17.36,10.96-17.36,21.68,0,6.88,4.4,10.88,10.24,10.88a20.675,20.675,0,0,0,11.68-4.4Zm-13.84-10.24c.64-6.96,4.56-11.84,7.76-11.84,1.6,0,2.72.96,2.72,3.28C-314.08,57.12-317.12,60.16-324.56,61.76ZM-291.76,74a28.283,28.283,0,0,0,15.2,4.8c8.56,0,14.4-5.44,14.4-12.24,0-4.48-2.4-8-9.12-12.88-6.32-4.64-7.84-6.96-7.84-9.44,0-2.88,2.8-5.2,7.04-5.2a9.965,9.965,0,0,1,5.68,1.68l.8,6h2.08l3.36-8.56a19.771,19.771,0,0,0-10.56-2.96c-8.8,0-14.64,5.44-14.64,11.92,0,3.52,2,7.12,7.6,11.12,7.36,5.28,9.04,7.52,9.04,11.12,0,3.12-2.24,5.44-6.64,5.44a14.439,14.439,0,0,1-9.92-3.68V65.04h-2.4Zm34.16-25.6.64,1.92a10.4,10.4,0,0,1,4.64.72,8.349,8.349,0,0,1,.4,2.48,65,65,0,0,1-1.44,10.32,47.839,47.839,0,0,0-1.28,8.4,6.438,6.438,0,0,0,4.72,6.4,16.18,16.18,0,0,0,8.24-3.92l-.8-2.24a13.3,13.3,0,0,1-4.4,1.36c-.88-.48-1.36-1.36-1.36-3.04a57.486,57.486,0,0,1,1.6-9.76,52.379,52.379,0,0,0,1.2-8.96c0-3.92-1.84-6-4.24-6A20.683,20.683,0,0,0-257.6,48.4Zm6.88-10.16a3.177,3.177,0,0,0,3.2,3.44c2.88,0,4.16-2.16,4.16-4.48a3.208,3.208,0,0,0-3.12-3.44A4.371,4.371,0,0,0-250.72,38.24Zm14.16,40.4,7.6-.64c0-6.64.16-9.76,1.2-14.08,1.28-6.24,7.36-12.16,10.8-12.56.64.56,1.04,1.92,1.04,3.76a53.189,53.189,0,0,1-1.2,8.72,48.539,48.539,0,0,0-1.28,8.48,6.459,6.459,0,0,0,4.8,6.32,15.926,15.926,0,0,0,8.16-3.92l-.8-2.16a13.637,13.637,0,0,1-4.24,1.28c-.96-.48-1.52-1.36-1.52-3.04a58.244,58.244,0,0,1,1.44-8.88,50.031,50.031,0,0,0,1.2-8.4c0-4.56-2.72-7.44-6.16-7.44-3.76,0-7.76,3.44-11.68,10.16h-.16c0-8-1.44-10.16-3.68-10.16a19.216,19.216,0,0,0-7.76,2.32l.64,1.92c2.64,0,4.08.32,4.72.8a8.629,8.629,0,0,1,.32,2.56c0,2.08-.24,4.32-1.2,10.16ZM-180.4,72a21.937,21.937,0,0,1-7.44,1.44c-4,0-6.64-1.92-6.64-8.24a24.349,24.349,0,0,1,2.88-11.92,5.074,5.074,0,0,1,4.64-2.8c1.84,0,3.6,1.36,5.68,4.16a5.078,5.078,0,0,0,3.04-4.32c0-2.16-2.16-4.24-6.24-4.24-8.08,0-16.88,9.68-16.88,21.68,0,6.88,4.48,10.88,10.08,10.88a20.675,20.675,0,0,0,11.68-4.4Zm25.6,0a21.13,21.13,0,0,1-7.36,1.44c-4.4,0-6.8-2.08-6.8-7.44a5.754,5.754,0,0,1,.08-1.44c11.2-1.68,17.36-6.48,17.36-12.16,0-3.84-2.88-6.32-6.96-6.32-9.2,0-17.36,10.96-17.36,21.68,0,6.88,4.4,10.88,10.24,10.88a20.675,20.675,0,0,0,11.68-4.4Zm-13.84-10.24c.64-6.96,4.56-11.84,7.76-11.84,1.6,0,2.72.96,2.72,3.28C-158.16,57.12-161.2,60.16-168.64,61.76Zm40.32-7.92c2.16-5.28,6.08-9.2,9.04-9.2,2.32,0,4.48,2.4,4.48,6.88-.16,6.56-5.04,12.64-21.92,24.8l1.68,2.48c2.24-1.52,4.64-2.72,6.8-2.72,3.92,0,7.44,2.96,12.64,2.96,4.32,0,7.04-2.8,8.08-9.76l-.4-.08a9.925,9.925,0,0,1-7.68,3.6,26.265,26.265,0,0,1-9.28-1.84c11.92-7.12,16.8-14.16,16.8-19.84,0-6.08-4.4-10-11.44-10-7.36,0-13.12,4.72-13.12,8.32C-132.64,51.76-129.36,53.68-128.32,53.84Zm41.68,21.2c-3.84,0-6.8-3.28-6.8-11.44,0-9.68,4.24-18.72,10.48-18.72,3.92,0,6.48,3.52,6.48,11.52C-76.48,66.48-80.4,75.04-86.64,75.04Zm-.8,3.76c11.2,0,18.4-10.56,18.4-22.08,0-9.84-5.28-15.6-13.28-15.6-10.72,0-18.64,10.72-18.64,22.48C-100.96,72.96-95.68,78.8-87.44,78.8Zm39.28-3.76c-3.84,0-6.8-3.28-6.8-11.44,0-9.68,4.24-18.72,10.48-18.72,3.92,0,6.48,3.52,6.48,11.52C-38,66.48-41.92,75.04-48.16,75.04Zm-.8,3.76c11.2,0,18.4-10.56,18.4-22.08,0-9.84-5.28-15.6-13.28-15.6-10.72,0-18.64,10.72-18.64,22.48C-62.48,72.96-57.2,78.8-48.96,78.8Zm25.52-.8H-2.96l.64-2.32-6.72-1.44,4.56-32.48-2.16-.64L-25.04,53.2l1.76,2.72,11.2-7.2L-15.28,70c-.56,3.6-2.08,4.96-7.6,5.68Z" transform="translate(600.88 45.76)" fill="#ea2427"/>
</svg>
