<svg xmlns="http://www.w3.org/2000/svg" xmlns:xlink="http://www.w3.org/1999/xlink" width="550" height="138.731" viewBox="0 0 550 138.731">
  <defs>
    <clipPath id="clip-path">
      <rect id="Rectangle_65" data-name="Rectangle 65" width="550" height="138.731" fill="#fff"/>
    </clipPath>
  </defs>
  <g id="Group_115" data-name="Group 115" transform="translate(-2.704 -7)">
    <g id="Group_114" data-name="Group 114" transform="translate(2.704 7)" clip-path="url(#clip-path)">
      <path id="Path_287" data-name="Path 287" d="M172.724,81.412a2.117,2.117,0,0,0-1.572-2.133,22.908,22.908,0,0,0-6.624-.617,170.934,170.934,0,0,0-30.422,2.863,211.741,211.741,0,0,0-21.948,5.164q-3.481,1.124-3.48,3.536a2.378,2.378,0,0,0,.561,1.572,2.672,2.672,0,0,0,2.189,1.178,10.038,10.038,0,0,0,3.144-.73A178.4,178.4,0,0,1,135.4,87.811l-1.515,2.413q-8.139,13.08-10.271,16.671-5.334,8.814-11.62,21.667-9.822,19.985-9.823,25.147a4.376,4.376,0,0,0,.786,2.47,3.435,3.435,0,0,0,2.919,1.8q1.908,0,2.694-3.537A170.4,170.4,0,0,1,119.4,127.72,285.321,285.321,0,0,1,139.775,92.3q1.8-2.638,1.8-3.873a1.864,1.864,0,0,0-1.4-1.74q5-1.234,18.523-1.684,6.791-.169,10.16-.505,3.873-.449,3.873-3.087" transform="translate(-24.994 -19.244)" fill="#fff"/>
      <path id="Path_288" data-name="Path 288" d="M248.459,27.692c0-16.968-11.529-26.54-31.651-26.54H182.763V77.291h11.194q2.3-3.414,4.617-6.446c1.231-1.618,2.41-3.047,3.55-4.312V55.864h15.228l7.931,15.024a50.449,50.449,0,0,1,7.1-6.708c2.914-2.2,5.371-3.452,7.477-3.815l-5.217-8.2c8.919-4.46,13.813-12.835,13.813-24.474M216.808,40.635H202.124V16.38h14.684c8.375,0,13.269,4.025,13.269,11.965,0,8.049-4.895,12.29-13.269,12.29" transform="translate(-44.711 -0.282)" fill="#fff"/>
      <path id="Path_289" data-name="Path 289" d="M37.249,47.352H65.722c-6.339-19.226-39.19-14.25-39.19-26.141,0-3.7,3.372-5.548,8.375-5.548,6.2,0,16.316,3.264,24.364,7.941l7.288-15.12C58.727,3.373,47.524,0,36.539,0,18.265,0,6.192,8.92,6.192,22.952c0,18.622,19.179,20.553,31.057,24.4" transform="translate(-1.515 0)" fill="#fff"/>
      <path id="Path_290" data-name="Path 290" d="M43.948,77.688C42.453,79.871,39.307,81,35.024,81a38.95,38.95,0,0,1-14.211-3.317H3.423L0,84.485A56.773,56.773,0,0,0,34.806,96.668c15.292,0,27.753-6.541,30.066-18.98Z" transform="translate(0 -19.006)" fill="#fff"/>
      <path id="Path_291" data-name="Path 291" d="M311.583,47.634l10.724-27.228L332.82,47.634h19.626L332.857,1.153H312.952L292.9,47.634Z" transform="translate(-71.655 -0.282)" fill="#fff"/>
      <path id="Path_292" data-name="Path 292" d="M283.867,77.688,275.96,96.015h19.905l5.547-14.031,1.654-4.3Z" transform="translate(-67.511 -19.005)" fill="#fff"/>
      <path id="Path_293" data-name="Path 293" d="M351.527,77.688l1.655,4.3,5.439,14.031h20.666l-7.724-18.327Z" transform="translate(-85.997 -19.005)" fill="#fff"/>
      <rect id="Rectangle_59" data-name="Rectangle 59" width="19.361" height="46.481" transform="translate(297.76 0.871)" fill="#fff"/>
      <rect id="Rectangle_60" data-name="Rectangle 60" width="19.361" height="18.327" transform="translate(297.76 58.682)" fill="#fff"/>
      <path id="Path_294" data-name="Path 294" d="M486.994,77.688a31.018,31.018,0,0,1-11.985,2.99,22.446,22.446,0,0,1-11.33-2.99H438.2c6.874,11.657,19.858,19.2,35.4,19.2,10.66,0,23.495-4.133,31.653-9.9v-9.3Z" transform="translate(-107.201 -19.006)" fill="#fff"/>
      <path id="Path_295" data-name="Path 295" d="M452.484,47.423A24.1,24.1,0,0,1,451,39.011c0-12.726,9.572-22.515,22.08-22.515a31.253,31.253,0,0,1,20.34,8.266L504.3,11.6C496.466,4.64,484.5.289,473.189.289,449.151.289,431.2,16.93,431.2,39.011a40.264,40.264,0,0,0,.882,8.412Z" transform="translate(-105.49 -0.071)" fill="#fff"/>
      <path id="Path_296" data-name="Path 296" d="M612.55,47.634V1.153H593.189V32.478H561.646V1.153h-19.36V47.634Z" transform="translate(-132.664 -0.282)" fill="#fff"/>
      <rect id="Rectangle_61" data-name="Rectangle 61" width="19.361" height="18.327" transform="translate(409.621 58.682)" fill="#fff"/>
      <rect id="Rectangle_62" data-name="Rectangle 62" width="19.361" height="18.327" transform="translate(460.525 58.682)" fill="#fff"/>
      <path id="Path_297" data-name="Path 297" d="M664.752,47.6h19.361V16.672h22.95V1.008H642.018V16.672h22.733Z" transform="translate(-157.063 -0.247)" fill="#fff"/>
      <rect id="Rectangle_63" data-name="Rectangle 63" width="19.361" height="18.327" transform="translate(507.689 58.682)" fill="#fff"/>
      <rect id="Rectangle_64" data-name="Rectangle 64" width="31.725" height="15.156" transform="translate(366.321 32.196)" fill="#fff"/>
      <path id="Path_298" data-name="Path 298" d="M156.145,161.443a10.507,10.507,0,0,1-2.3-1.291,5.476,5.476,0,0,1-1.4-3.873,24.314,24.314,0,0,1,1.74-7.746,43.193,43.193,0,0,1,3.256-7.3,9.427,9.427,0,0,0,1.571-3.873,3.75,3.75,0,0,0-.841-2.077,9.352,9.352,0,0,0,.954-3.424,3.956,3.956,0,0,0-1.347-2.919,5.556,5.556,0,0,0-3.929-1.459,13.426,13.426,0,0,0-7.8,2.919,36.33,36.33,0,0,0-10.552,12.854q-3.928,7.523-3.929,13.752a8.629,8.629,0,0,0,1.067,4.379,5.225,5.225,0,0,0,4.715,2.862q3.48,0,7.016-4.378a42.291,42.291,0,0,0,3.649-5.5q-.224,2.583-.224,3.7a8.378,8.378,0,0,0,1.8,5.5,6.543,6.543,0,0,0,5.22,2.694,2.9,2.9,0,0,0,1.965-.73,2.182,2.182,0,0,0,.786-1.74,2.4,2.4,0,0,0-1.4-2.357m-10.609-9.374q-3.592,5.725-6.287,5.726a1.849,1.849,0,0,1-1.6-.73,3.579,3.579,0,0,1-.533-2.133q0-5.725,5.5-13.976,5-7.464,9.261-7.466a2.753,2.753,0,0,1,1.684.59,5.581,5.581,0,0,1,1.46,1.824,8.2,8.2,0,0,0-1.629,1.628,49.205,49.205,0,0,0-2.862,5.276,94.643,94.643,0,0,1-5,9.261" transform="translate(-32.185 -31.187)" fill="#fff"/>
      <path id="Path_299" data-name="Path 299" d="M213.3,82.554a3.406,3.406,0,0,0-2.75-1.291q-5.277,0-13.3,10.552-10.049,13.135-19.7,33.4a137.243,137.243,0,0,0-5.669,13.528,28.931,28.931,0,0,0-1.909,8.7,5.134,5.134,0,0,0,.955,3.143,4.159,4.159,0,0,0,3.48,1.8q4.938,0,10.721-7.69,5.556-7.352,5.557-9.767,0-1.4-1.459-1.4-1.293,0-2.47,1.909a69.217,69.217,0,0,1-4.491,6.679q-3.2,3.818-5.22,3.818-1.347,0-1.347-1.4a15.164,15.164,0,0,1,.841-3.761q.842-2.694,2.527-7.072,3.985-3.592,6.286-5.726a135.27,135.27,0,0,0,15.043-16.278q14.032-18.3,14.033-26.157a4.4,4.4,0,0,0-1.122-2.975M203.926,99.5a102.5,102.5,0,0,1-20.881,25.259,175.823,175.823,0,0,1,13.359-24.7q8.139-12.292,11.226-12.292,1.066,0,1.067,1.234,0,2.583-4.771,10.5" transform="translate(-41.581 -19.88)" fill="#fff"/>
      <path id="Path_300" data-name="Path 300" d="M246.976,83.388a2.939,2.939,0,0,0-2.19-1.011q-2.75,0-7.353,3.481-5.109,3.817-11.507,12.124-11.844,15.213-22.228,37.5Q197.8,148.22,197.8,150.464a2.538,2.538,0,0,0,.618,1.572,1.858,1.858,0,0,0,1.459.73q1.629,0,3.592-3.2,7.409-11.787,11.058-14.818a39.9,39.9,0,0,0-1.347,8.475,16.1,16.1,0,0,0,1.347,6.511,6.238,6.238,0,0,0,6.118,4.21q7.185,0,14.819-9.823,5.164-6.621,5.164-8.756a1.142,1.142,0,0,0-1.292-1.291q-1.292,0-2.75,2.245a42.037,42.037,0,0,1-5.556,6.624q-5,5.109-8.813,5.108a3.363,3.363,0,0,1-2.975-1.908,7.393,7.393,0,0,1-.9-3.818q0-4.715,3.648-13.752a33.675,33.675,0,0,1,8.757-4.266q2.526-.729,2.526-2.583a1.652,1.652,0,0,0-.618-1.347,1.779,1.779,0,0,0-1.291-.561,13.156,13.156,0,0,0-4.378,1.291,45.13,45.13,0,0,0-7.129,3.761q-4.1,2.862-11.114,10.441,3.369-7.074,4.1-8.533a102.641,102.641,0,0,0,12.63-9.542q12.516-10.889,17.737-18.58,5-7.464,5-12.236a4.127,4.127,0,0,0-1.234-3.031M240.745,94.5a55.964,55.964,0,0,1-6.4,8.981,81.421,81.421,0,0,1-17.176,15.436,155.9,155.9,0,0,1,13.247-20.376q7.69-9.654,10.833-9.654,1.178,0,1.178,1.291a10.938,10.938,0,0,1-1.684,4.322" transform="translate(-48.391 -20.153)" fill="#fff"/>
      <path id="Path_301" data-name="Path 301" d="M270.191,99.711l-4.4-6.918a29.428,29.428,0,0,1-3.085,6.918Z" transform="translate(-64.268 -22.701)" fill="#fff"/>
      <path id="Path_302" data-name="Path 302" d="M112.819,64.309c5.3-1.43,11.3-2.775,17.928-4.012.48-.086.956-.161,1.434-.244V16.671h22.95V1.008H90.086V16.671h22.733Z" transform="translate(-22.039 -0.247)" fill="#fff"/>
      <path id="Path_303" data-name="Path 303" d="M120.182,100.21h11.7q1.493-2.411,3.336-5.376c-5.31.958-10.342,2.1-15.032,3.392Z" transform="translate(-29.401 -23.2)" fill="#fff"/>
    </g>
  </g>
</svg>
