<svg xmlns="http://www.w3.org/2000/svg" xmlns:xlink="http://www.w3.org/1999/xlink" width="1189.713" height="317" viewBox="0 0 1189.713 317">
  <defs>
    <clipPath id="clip-path">
      <rect id="Rectangle_108" data-name="Rectangle 108" width="1189.713" height="127.33" fill="#ea2427"/>
    </clipPath>
  </defs>
  <g id="Group_179" data-name="Group 179" transform="translate(-144 -8292)">
    <text id="TALK_WITH" data-name="TALK WITH" transform="translate(144 8292)" fill="#ea2427" font-size="136" font-family="Montserrat-Bold, Montserrat" font-weight="700"><tspan x="0" y="132">TALK WITH</tspan></text>
    <g id="Group_171" data-name="Group 171" transform="translate(144 8481.67)">
      <g id="Group_171-2" data-name="Group 171" transform="translate(0 0)" clip-path="url(#clip-path)">
        <path id="Path_883" data-name="Path 883" d="M79.934,34.521c0,21.505-15.564,34.521-41.312,34.521H14.148V99.034H0V0H38.623C64.371,0,79.934,13.015,79.934,34.521m-14.148,0c0-14.148-9.48-22.212-27.587-22.212H14.148V56.733H38.2c18.107,0,27.587-8.064,27.587-22.212" transform="translate(0 0)" fill="#ea2427"/>
        <path id="Path_884" data-name="Path 884" d="M79.367,9.811V22.969a23.773,23.773,0,0,0-3.112-.143c-14.572,0-23.628,8.913-23.628,25.324V85.5H39.045V10.518H52.06V23.11c4.811-8.771,14.148-13.3,27.306-13.3" transform="translate(53.86 13.534)" fill="#ea2427"/>
        <path id="Path_885" data-name="Path 885" d="M57.674,48.01c0-22.352,16.551-38.2,39.046-38.2s38.908,15.847,38.908,38.2S119.215,86.35,96.72,86.35,57.674,70.363,57.674,48.01m64.23,0C121.9,32.023,111.152,21.7,96.72,21.7S71.4,32.023,71.4,48.01s10.9,26.457,25.324,26.457S121.9,64,121.9,48.01" transform="translate(79.557 13.534)" fill="#ea2427"/>
        <path id="Path_886" data-name="Path 886" d="M174.026,48.01c0,23.061-15.985,38.34-37.914,38.34-10.612,0-19.949-4.1-26.174-12.166V112.95H96.357V10.518h13.015V22.4c6.084-8.347,15.7-12.592,26.74-12.592,21.929,0,37.914,15.281,37.914,38.2m-13.722,0c0-15.845-10.893-26.314-25.324-26.314C120.691,21.7,109.8,32.166,109.8,48.01c0,15.987,10.9,26.457,25.184,26.457C149.411,74.467,160.3,64,160.3,48.01" transform="translate(132.917 13.534)" fill="#ea2427"/>
        <path id="Path_887" data-name="Path 887" d="M207.043,52.538H146.208c1.7,13.156,12.309,21.929,27.164,21.929,8.773,0,16.128-2.972,21.646-9.056l7.5,8.773c-6.791,7.923-17.12,12.166-29.569,12.166-24.194,0-40.322-15.987-40.322-38.34,0-22.212,15.987-38.2,37.633-38.2s37.067,15.564,37.067,38.623c0,1.133-.14,2.832-.283,4.1m-60.835-9.763h48.1c-1.416-12.592-10.893-21.505-24.051-21.505-13.015,0-22.635,8.773-24.051,21.505" transform="translate(182.948 13.534)" fill="#ea2427"/>
        <path id="Path_888" data-name="Path 888" d="M210.139,9.811V22.969a23.773,23.773,0,0,0-3.112-.143c-14.572,0-23.628,8.913-23.628,25.324V85.5H169.817V10.518h13.015V23.11c4.811-8.771,14.148-13.3,27.306-13.3" transform="translate(234.25 13.534)" fill="#ea2427"/>
        <path id="Path_889" data-name="Path 889" d="M242.3,90.219c-4.1,3.536-10.327,5.235-16.411,5.235-15.138,0-23.768-8.347-23.768-23.485V30.8H189.384V19.622h12.735V3.211H215.7V19.622h21.5V30.8H215.7V71.4c0,8.064,4.245,12.592,11.742,12.592a17.092,17.092,0,0,0,10.61-3.538Z" transform="translate(261.241 4.43)" fill="#ea2427"/>
        <path id="Path_890" data-name="Path 890" d="M293.557,10.108,257.2,92.588c-6.648,15.847-15.278,20.8-26.74,20.8-7.214,0-14.572-2.406-19.24-6.934l5.8-10.186a19.18,19.18,0,0,0,13.439,5.518c6.51,0,10.612-2.97,14.291-11.6l2.406-5.235L214.046,10.108h14.148L254.368,70.1l25.891-59.988Z" transform="translate(291.358 13.943)" fill="#ea2427"/>
        <path id="Path_891" data-name="Path 891" d="M311.823,20.373v78.8H286.639v-78.8H257.07V0h84.605V20.373Z" transform="translate(354.609 0)" fill="#ea2427"/>
        <path id="Path_892" data-name="Path 892" d="M388.066,57.5c0,26.174-17.4,42.727-45.131,42.727-27.873,0-45.7-16.554-45.7-42.727V.06H322.42V57.5c0,13.441,8.63,21.646,20.656,21.646,11.885,0,19.949-8.2,19.949-21.646V.06h25.041Z" transform="translate(410.015 0.083)" fill="#ea2427"/>
        <path id="Path_893" data-name="Path 893" d="M385.064,71.223H365.258V99.1H340.074V.059h44.283c26.174,0,41.171,12.452,41.171,34.521,0,15.138-6.367,26.033-17.969,31.834l20.8,32.681H399.778Zm-.707-19.806c10.893,0,17.26-5.518,17.26-15.987,0-10.327-6.367-15.561-17.26-15.561h-19.1V51.417Z" transform="translate(469.107 0.082)" fill="#ea2427"/>
        <path id="Path_894" data-name="Path 894" d="M420.083,60.188,406.925,74.759V99.094H381.743V.06h25.181V42.927L444.841.06h29.146L437.2,41.088l39.191,58.006H446.257Z" transform="translate(526.586 0.082)" fill="#ea2427"/>
        <path id="Path_895" data-name="Path 895" d="M449.5,19.866V39.532h47.253V59.338H449.5V79.287h53.9V99.094H424.315V.06h77.531V19.866Z" transform="translate(585.311 0.083)" fill="#ea2427"/>
        <path id="Path_896" data-name="Path 896" d="M520.658,99.094H495.617V67.828L458.973.06h25.184l23.908,43.151L531.41.06h25.184L520.658,67.119Z" transform="translate(633.12 0.083)" fill="#ea2427"/>
      </g>
    </g>
  </g>
</svg>
