<svg xmlns="http://www.w3.org/2000/svg" width="349.325" height="65.417" viewBox="0 0 349.325 65.417">
  <path id="_5_Stars" data-name="5 Stars" d="M32.708,10.933l5.4,16.635,17.492,0L41.453,37.851,32.71,44.2l9.968-2.581,4.178,12.862L32.71,44.2,18.56,54.484l5.4-16.636L9.813,27.563l17.492,0ZM0,65.417H65.417V0H0ZM103.685,10.933l5.4,16.635,17.492,0L112.43,37.851,103.687,44.2l9.968-2.581,4.178,12.862L103.687,44.2,89.537,54.484l5.4-16.636L80.79,27.563l17.492,0ZM70.977,65.417h65.417V0H70.977ZM174.663,10.933l5.4,16.635,17.492,0L183.407,37.851,174.664,44.2l9.968-2.581,4.178,12.862L174.664,44.2l-14.15,10.281,5.4-16.636L151.767,27.563l17.492,0ZM141.954,65.417h65.417V0H141.954ZM245.64,10.933l5.4,16.635,17.492,0L254.384,37.851,245.642,44.2l9.968-2.581,4.178,12.862L245.642,44.2l-14.15,10.281,5.4-16.636L222.744,27.563l17.492,0ZM212.931,65.417h65.417V0H212.931ZM316.617,10.933l5.4,16.635,17.492,0L325.362,37.851,316.619,44.2l9.968-2.581,4.178,12.862L316.619,44.2l-14.15,10.281,5.4-16.636L293.721,27.563l17.492,0ZM283.908,65.417h65.417V0H283.908Z" fill="#507e4c"/>
</svg>
