<svg xmlns="http://www.w3.org/2000/svg" width="499.995" height="122.803" viewBox="0 0 499.995 122.803">
  <path id="Trustpilot_Logo" data-name="Trustpilot Logo" d="M-982.617-5908.2v-62.029h9.461v6.133h.177a12.346,12.346,0,0,1,5.868-5.652,19.508,19.508,0,0,1,8.149-1.708,21.656,21.656,0,0,1,9.331,1.884,18.415,18.415,0,0,1,6.614,5.169,22.481,22.481,0,0,1,3.943,7.666,32.52,32.52,0,0,1,1.314,9.375,33.21,33.21,0,0,1-1.182,8.848,23.052,23.052,0,0,1-3.593,7.579,17.967,17.967,0,0,1-6.089,5.257,18.113,18.113,0,0,1-8.673,1.971,24.786,24.786,0,0,1-4.382-.394,19.013,19.013,0,0,1-4.2-1.27,16.468,16.468,0,0,1-3.723-2.236,12.353,12.353,0,0,1-2.849-3.2h-.174v22.6Zm12.835-50.991q-3.2,4.384-3.2,11.653a23.188,23.188,0,0,0,.831,6.353,14.251,14.251,0,0,0,2.5,5.037,12.438,12.438,0,0,0,3.987,3.329,11.347,11.347,0,0,0,5.388,1.228,11.162,11.162,0,0,0,5.782-1.4,12.239,12.239,0,0,0,3.9-3.636,14.775,14.775,0,0,0,2.19-5.083,25.846,25.846,0,0,0,.657-5.826,22.551,22.551,0,0,0-.789-5.958,16.154,16.154,0,0,0-2.366-5.125,12.242,12.242,0,0,0-3.943-3.593,10.714,10.714,0,0,0-5.431-1.357Q-966.585-5963.569-969.782-5959.188Zm-325.693,42.082,14.135-43.506-37.012-26.9,45.746.007,14.131-43.5,14.132,43.5,45.745.007L-1235.6-5960.6l-22.864,16.612,26.067-6.75,10.928,33.633-37-26.883-37,26.886h0Zm415.135-8.395a20.621,20.621,0,0,1-7.185-4.951,21.154,21.154,0,0,1-4.468-7.535,28.976,28.976,0,0,1-1.533-9.637,28.72,28.72,0,0,1,1.533-9.551,21.186,21.186,0,0,1,4.468-7.534,20.671,20.671,0,0,1,7.185-4.95,24.687,24.687,0,0,1,9.681-1.8,24.7,24.7,0,0,1,9.681,1.8,20.713,20.713,0,0,1,7.185,4.95,21.229,21.229,0,0,1,4.468,7.534,28.8,28.8,0,0,1,1.533,9.551,29.054,29.054,0,0,1-1.533,9.637,21.2,21.2,0,0,1-4.468,7.535,20.663,20.663,0,0,1-7.185,4.951,24.7,24.7,0,0,1-9.681,1.8A24.688,24.688,0,0,1-880.34-5925.5Zm3.9-36.667a12.389,12.389,0,0,0-4.031,3.636,15.462,15.462,0,0,0-2.322,5.125,23.049,23.049,0,0,0-.745,5.783,22.852,22.852,0,0,0,.745,5.826,15.977,15.977,0,0,0,2.322,5.125,12.165,12.165,0,0,0,4.031,3.681,11.453,11.453,0,0,0,5.782,1.4,11.46,11.46,0,0,0,5.782-1.4,12.179,12.179,0,0,0,4.031-3.681,16.009,16.009,0,0,0,2.322-5.125,22.985,22.985,0,0,0,.745-5.826,23.187,23.187,0,0,0-.745-5.783,15.492,15.492,0,0,0-2.322-5.125,12.4,12.4,0,0,0-4.031-3.636,11.465,11.465,0,0,0-5.782-1.4A11.457,11.457,0,0,0-876.441-5962.167Zm-170.526,37.5a18.452,18.452,0,0,1-6.309-2.937,14.134,14.134,0,0,1-4.206-4.905,15.578,15.578,0,0,1-1.62-6.965h9.987q.438,4.381,3.33,6.133a13.084,13.084,0,0,0,6.922,1.753,26.6,26.6,0,0,0,3.2-.22,13.813,13.813,0,0,0,3.372-.833,6.34,6.34,0,0,0,2.585-1.795,4.329,4.329,0,0,0,.92-3.11,4.423,4.423,0,0,0-1.4-3.154,9.754,9.754,0,0,0-3.372-1.972,32.995,32.995,0,0,0-4.687-1.27q-2.629-.524-5.344-1.138a50.1,50.1,0,0,1-5.388-1.489,17.4,17.4,0,0,1-4.644-2.366,10.94,10.94,0,0,1-3.286-3.812,12.181,12.181,0,0,1-1.226-5.739,10.307,10.307,0,0,1,1.8-6.177,13.767,13.767,0,0,1,4.556-4.029,19.842,19.842,0,0,1,6.133-2.146,36.024,36.024,0,0,1,6.439-.614,29.573,29.573,0,0,1,6.7.745,18.306,18.306,0,0,1,5.782,2.41,14.17,14.17,0,0,1,4.293,4.336,15.013,15.013,0,0,1,2.146,6.44h-10.426q-.7-3.591-3.284-4.819a13.647,13.647,0,0,0-5.915-1.226,21.308,21.308,0,0,0-2.5.175,11.537,11.537,0,0,0-2.715.657,5.7,5.7,0,0,0-2.146,1.4,3.349,3.349,0,0,0-.876,2.41,3.812,3.812,0,0,0,1.27,2.979,10.022,10.022,0,0,0,3.33,1.883,32.558,32.558,0,0,0,4.688,1.271q2.629.524,5.432,1.139,2.713.615,5.344,1.489a17.276,17.276,0,0,1,4.686,2.366,11.508,11.508,0,0,1,3.33,3.769,11.374,11.374,0,0,1,1.27,5.606,12.188,12.188,0,0,1-1.839,6.834,14.557,14.557,0,0,1-4.775,4.556,21.723,21.723,0,0,1-6.527,2.54,33,33,0,0,1-7.1.789A30.905,30.905,0,0,1-1046.967-5924.668Zm-54.934-3.461q-3.987-4.423-3.985-13.36v-28.737h9.987v27.772q0,5.96,2.278,8.411a8.294,8.294,0,0,0,6.4,2.454,12.608,12.608,0,0,0,5.257-.964,9.263,9.263,0,0,0,3.416-2.585,9.926,9.926,0,0,0,1.884-3.9,20.178,20.178,0,0,0,.569-4.907v-26.283h9.988v45.3h-9.813v-6.309h-.176a13.72,13.72,0,0,1-5.475,5.476,14.874,14.874,0,0,1-7.4,2.059Q-1097.914-5923.706-1101.9-5928.13Zm270.71,2.891a8.448,8.448,0,0,1-3.767-2.19,7.544,7.544,0,0,1-1.841-3.636,27.294,27.294,0,0,1-.569-4.993v-26.722H-844.9v-7.447h7.535v-13.58h9.988v13.58h9.024v7.447h-9.024v24.181a24.024,24.024,0,0,0,.132,2.715,4.68,4.68,0,0,0,.613,1.929,2.926,2.926,0,0,0,1.445,1.182,7.1,7.1,0,0,0,2.628.4q1.053,0,2.1-.044a10.375,10.375,0,0,0,2.1-.308v7.71q-1.666.175-3.242.351a29.729,29.729,0,0,1-3.241.174A22.1,22.1,0,0,1-831.191-5925.239Zm-171.269,0a8.44,8.44,0,0,1-3.767-2.19,7.544,7.544,0,0,1-1.841-3.636,27.294,27.294,0,0,1-.569-4.993v-26.722h-7.535v-7.447h7.535v-13.58h9.987v13.58h9.025v7.447h-9.025v24.181a24.4,24.4,0,0,0,.132,2.715,4.68,4.68,0,0,0,.615,1.929,2.92,2.92,0,0,0,1.445,1.182,7.1,7.1,0,0,0,2.628.4q1.051,0,2.1-.044a10.375,10.375,0,0,0,2.1-.308v7.71q-1.666.175-3.242.351a29.757,29.757,0,0,1-3.242.174A22.092,22.092,0,0,1-1002.46-5925.239Zm91.237.308v-62.555h9.987v62.555Zm-18.914,0v-45.3h9.987v45.3Zm-208.354,0v-45.3h9.374v8.76h.176a10.091,10.091,0,0,1,1.709-3.591,16.575,16.575,0,0,1,3.067-3.2,15.476,15.476,0,0,1,3.985-2.322,11.958,11.958,0,0,1,4.468-.876,21.844,21.844,0,0,1,2.41.088c.439.059.89.118,1.358.175v9.637c-.7-.115-1.417-.218-2.146-.306a18.062,18.062,0,0,0-2.146-.131,11.491,11.491,0,0,0-4.774,1.008,10.946,10.946,0,0,0-3.9,2.978,14.58,14.58,0,0,0-2.629,4.863,21.034,21.034,0,0,0-.964,6.66v21.552Zm-28.649,0v-53.094h-19.8v-9.461h50.64v9.461h-19.887v53.094Zm237-53.094v-9.461h9.987v9.461Z" transform="translate(1318.351 6031)" fill="#b7b0a2"/>
</svg>
